<svg xmlns="http://www.w3.org/2000/svg" width="156.094" height="156.094" viewBox="0 0 156.094 156.094">
    <g data-name="Group 1322">
        <g data-name="Group 1337">
            <g data-name="Group 1326">
                <g data-name="Group 1323">
                    <g data-name="Group 1322">
                        <circle data-name="Ellipse 440" cx="55.187" cy="55.187" r="55.187" transform="rotate(-45 94.211 39.023)" style="fill:#ef5959"/>
                    </g>
                </g>
                <g data-name="Group 1325">
                    <g data-name="Group 1324" transform="translate(21.453 21.453)">
                        <circle data-name="Ellipse 441" cx="44.96" cy="44.96" transform="rotate(-17.883 87.747 13.806)" style="fill:#fff" r="44.96"/>
                    </g>
                </g>
            </g>
            <g data-name="Group 1336">
                <g data-name="Group 1331">
                    <g data-name="Group 1328">
                        <g data-name="Group 1327">
                            <path data-name="Path 1747" d="M248.68 242.487a62.556 62.556 0 0 1-105.044-65.147c.928-2.19-2.355-3.267-3.2-1.207a65.983 65.983 0 0 0 110.853 68.594c1.711-1.997-1.253-3.816-2.609-2.24z" transform="translate(-123.253 -123.639)" style="fill:#ef5959"/>
                        </g>
                    </g>
                    <g data-name="Group 1330">
                        <g data-name="Group 1329">
                            <path data-name="Path 1748" d="M244.32 151.611c-27.583-23.731-68.936-20.252-93.061 6.986-1.947 2.2.8 4.338 2.6 2.241a62.548 62.548 0 0 1 102.807 69.845c-1.042 1.984 2.024 3.717 3.538.631 13.04-26.562 7.534-59.554-15.884-79.703z" transform="translate(-123.274 -123.584)" style="fill:#ef5959"/>
                        </g>
                    </g>
                </g>
                <g data-name="Group 1333">
                    <g data-name="Group 1332">
                        <path data-name="Path 1749" d="M253.753 241.352a1.473 1.473 0 0 1-1.8-2.14l2.85-4.629a1.473 1.473 0 1 1 2.508 1.544l-2.85 4.63a1.471 1.471 0 0 1-.708.595z" transform="translate(-123.415 -123.721)" style="fill:#ef5959"/>
                    </g>
                </g>
                <g data-name="Group 1335">
                    <g data-name="Group 1334">
                        <path data-name="Path 1750" d="M144.553 173.267a1.848 1.848 0 0 1-2.2-2.773l4.86-6.965a1.848 1.848 0 0 1 3.032 2.114l-4.86 6.966a1.843 1.843 0 0 1-.832.658z" transform="translate(-123.262 -123.622)" style="fill:#ef5959"/>
                    </g>
                </g>
            </g>
        </g>
        <g data-name="Group 1424">
            <g data-name="Group 1347">
                <g data-name="Group 1343">
                    <g data-name="Group 1342">
                        <g data-name="Group 1341">
                            <path data-name="Path 1752" d="m116.611 193.861 5.635-1.443a.985.985 0 0 1 1.2.71.985.985 0 0 1-.71 1.2l-5.635 1.443a.985.985 0 0 1-1.2-.71.985.985 0 0 1 .71-1.2z" transform="translate(-113.544 -148.613)" style="fill:#ef5959"/>
                        </g>
                    </g>
                </g>
                <g data-name="Group 1346">
                    <g data-name="Group 1345">
                        <g data-name="Group 1344">
                            <path data-name="Path 1753" d="m119.908 191.029 1.443 5.635a.985.985 0 0 1-.71 1.2.985.985 0 0 1-1.2-.71L118 191.517a.985.985 0 0 1 .71-1.2.985.985 0 0 1 1.198.712z" transform="translate(-113.547 -148.61)" style="fill:#ef5959"/>
                        </g>
                    </g>
                </g>
            </g>
            <g data-name="Group 1353">
                <g data-name="Group 1352">
                    <g data-name="Group 1351">
                        <g data-name="Group 1350">
                            <g data-name="Group 1349">
                                <g data-name="Group 1348">
                                    <path data-name="Path 1754" d="M145.253 142.72a.776.776 0 0 1 .366-1.508 1.963 1.963 0 1 0-1.445-2.371.776.776 0 1 1-1.508-.366 3.516 3.516 0 1 1 2.586 4.245z" transform="translate(-123.262 -123.584)" style="fill:#ef5959"/>
                                </g>
                            </g>
                        </g>
                    </g>
                </g>
            </g>
            <g data-name="Group 1358">
                <g data-name="Group 1357">
                    <g data-name="Group 1356">
                        <g data-name="Group 1355">
                            <g data-name="Group 1354">
                                <path data-name="Path 1755" d="M134.351 235.456a.785.785 0 0 1-.278-.165l-2.839-2.621a.772.772 0 1 1 1.048-1.134l2.839 2.621a.772.772 0 0 1-.77 1.3z" transform="translate(-123.246 -123.717)" style="fill:#ef5959"/>
                            </g>
                        </g>
                    </g>
                </g>
            </g>
            <g data-name="Group 1363">
                <g data-name="Group 1362">
                    <g data-name="Group 1361">
                        <g data-name="Group 1360">
                            <g data-name="Group 1359">
                                <path data-name="Path 1756" d="M172.488 271.017a2.164 2.164 0 1 1-1.731-2.525 2.167 2.167 0 0 1 1.731 2.525zm-3.443-.643a1.338 1.338 0 1 0 1.561-1.07 1.341 1.341 0 0 0-1.561 1.07z" transform="translate(-123.298 -123.769)" style="fill:#ef5959"/>
                            </g>
                        </g>
                    </g>
                </g>
            </g>
            <g data-name="Group 1368">
                <g data-name="Group 1367">
                    <g data-name="Group 1366">
                        <g data-name="Group 1365">
                            <g data-name="Group 1364">
                                <path data-name="Path 1757" d="M177.547 216.049a3.623 3.623 0 1 1-2.9-4.226 3.628 3.628 0 0 1 2.9 4.226zm-5.763-1.077a2.24 2.24 0 1 0 2.613-1.791 2.242 2.242 0 0 0-2.613 1.792z" transform="translate(-121.403 -111.354)" style="fill:#ef5959"/>
                            </g>
                        </g>
                    </g>
                </g>
            </g>
            <g data-name="Group 1379">
                <g data-name="Group 1373">
                    <g data-name="Group 1372">
                        <g data-name="Group 1371">
                            <g data-name="Group 1370">
                                <g data-name="Group 1369">
                                    <path data-name="Path 1758" d="m217.931 177.225-6.065.491a1.031 1.031 0 0 1-1.109-.945 1.03 1.03 0 0 1 .944-1.109l6.066-.491a1.03 1.03 0 0 1 1.11.944 1.031 1.031 0 0 1-.946 1.11z" transform="translate(-137.592 -135.027)" style="fill:#ef5959"/>
                                </g>
                            </g>
                        </g>
                    </g>
                </g>
                <g data-name="Group 1378">
                    <g data-name="Group 1377">
                        <g data-name="Group 1376">
                            <g data-name="Group 1375">
                                <g data-name="Group 1374">
                                    <path data-name="Path 1759" d="m214.038 179.556-.491-6.066a1.03 1.03 0 0 1 .944-1.11 1.03 1.03 0 0 1 1.11.944l.491 6.066a1.032 1.032 0 0 1-.945 1.11 1.03 1.03 0 0 1-1.109-.944z" transform="translate(-137.596 -135.023)" style="fill:#ef5959"/>
                                </g>
                            </g>
                        </g>
                    </g>
                </g>
            </g>
            <g data-name="Group 1390">
                <g data-name="Group 1384">
                    <g data-name="Group 1383">
                        <g data-name="Group 1382">
                            <g data-name="Group 1381">
                                <g data-name="Group 1380">
                                    <path data-name="Path 1760" d="M269.251 167.173a4.063 4.063 0 1 1-3.661-4.429 4.068 4.068 0 0 1 3.661 4.429zm-6.546-.621a2.513 2.513 0 1 0 2.738-2.264 2.515 2.515 0 0 0-2.743 2.264z" transform="translate(-123.428 -123.622)" style="fill:#ef5959"/>
                                </g>
                            </g>
                        </g>
                    </g>
                </g>
                <g data-name="Group 1389">
                    <g data-name="Group 1388">
                        <g data-name="Group 1387">
                            <g data-name="Group 1386">
                                <g data-name="Group 1385">
                                    <path data-name="Path 1761" d="M250.793 144.414a1.817 1.817 0 0 0 3.616.343 1.817 1.817 0 0 0-3.616-.343z" transform="translate(-123.413 -123.594)" style="fill:#ef5959"/>
                                </g>
                            </g>
                        </g>
                    </g>
                </g>
            </g>
            <g data-name="Group 1395">
                <g data-name="Group 1394">
                    <g data-name="Group 1393">
                        <g data-name="Group 1392">
                            <g data-name="Group 1391">
                                <path data-name="Path 1762" d="M220.51 224.343a1.608 1.608 0 0 0 3.2.3 1.608 1.608 0 0 0-3.2-.3z" transform="translate(-123.371 -123.706)" style="fill:#ef5959"/>
                            </g>
                        </g>
                    </g>
                </g>
            </g>
            <g data-name="Group 1402">
                <g data-name="Group 1398">
                    <g data-name="Group 1397">
                        <g data-name="Group 1396">
                            <path data-name="Path 1763" d="m243.413 265.93.228 5.812a.985.985 0 0 1-.946 1.023.985.985 0 0 1-1.023-.946l-.228-5.812a.985.985 0 0 1 .946-1.023.985.985 0 0 1 1.023.946z" transform="translate(-123.4 -123.764)" style="fill:#ef5959"/>
                        </g>
                    </g>
                </g>
                <g data-name="Group 1401">
                    <g data-name="Group 1400">
                        <g data-name="Group 1399">
                            <path data-name="Path 1764" d="m245.483 269.748-5.812.228a.985.985 0 0 1-1.023-.946.983.983 0 0 1 .946-1.023l5.812-.228a.985.985 0 0 1 1.023.946.984.984 0 0 1-.946 1.023z" transform="translate(-123.396 -123.768)" style="fill:#ef5959"/>
                        </g>
                    </g>
                </g>
            </g>
            <g data-name="Group 1407">
                <g data-name="Group 1406">
                    <g data-name="Group 1405">
                        <g data-name="Group 1404">
                            <g data-name="Group 1403">
                                <path data-name="Path 1765" d="M279.27 203.9a.779.779 0 0 1-.254-.2l-2.481-2.963a.772.772 0 0 1 1.184-.992l2.481 2.963a.773.773 0 0 1-.931 1.19z" transform="translate(-127.778 -131.673)" style="fill:#ef5959"/>
                            </g>
                        </g>
                    </g>
                </g>
            </g>
            <g data-name="Group 1412">
                <g data-name="Group 1411">
                    <g data-name="Group 1410">
                        <g data-name="Group 1409">
                            <g data-name="Group 1408">
                                <path data-name="Path 1766" d="M278.328 238.473a2.164 2.164 0 1 1-1.73-2.525 2.166 2.166 0 0 1 1.73 2.525zm-3.443-.644a1.338 1.338 0 1 0 1.562-1.07 1.339 1.339 0 0 0-1.562 1.07z" transform="translate(-137.431 -116.724)" style="fill:#ef5959"/>
                            </g>
                        </g>
                    </g>
                </g>
            </g>
            <g data-name="Group 1423">
                <g data-name="Group 1417">
                    <g data-name="Group 1416">
                        <g data-name="Group 1415">
                            <g data-name="Group 1414">
                                <g data-name="Group 1413">
                                    <path data-name="Path 1767" d="m191.873 129.284-3.095.251a.524.524 0 0 1-.566-.481.524.524 0 0 1 .481-.566l3.095-.251a.527.527 0 0 1 .566.481.526.526 0 0 1-.481.566z" transform="translate(-123.326 -123.573)" style="fill:#ef5959"/>
                                </g>
                            </g>
                        </g>
                    </g>
                </g>
                <g data-name="Group 1422">
                    <g data-name="Group 1421">
                        <g data-name="Group 1420">
                            <g data-name="Group 1419">
                                <g data-name="Group 1418">
                                    <path data-name="Path 1768" d="m189.886 130.473-.25-3.095a.524.524 0 0 1 .481-.566.525.525 0 0 1 .566.481l.251 3.095a.526.526 0 0 1-.482.566.526.526 0 0 1-.566-.481z" transform="translate(-123.328 -123.571)" style="fill:#ef5959"/>
                                </g>
                            </g>
                        </g>
                    </g>
                </g>
            </g>
        </g>
        <g data-name="Group 36604">
            <g data-name="Group 1174">
                <g data-name="Group 1173">
                    <g data-name="Group 1172">
                        <path data-name="Path 1722" d="M852.934 223.548a4 4 0 0 1-2.831-1.172l-38.267-38.266a4 4 0 1 1 5.662-5.664l38.266 38.267a4 4 0 0 1-2.831 6.836z" transform="translate(-756.3 -124.284)" style="fill:#ef5959"/>
                    </g>
                </g>
            </g>
            <g data-name="Group 1177">
                <g data-name="Group 1176">
                    <g data-name="Group 1175">
                        <path data-name="Path 1723" d="M814.667 223.548a4 4 0 0 1-2.831-6.836l38.264-38.266a4 4 0 0 1 5.661 5.664L817.5 222.376a4 4 0 0 1-2.833 1.172z" transform="translate(-756.3 -124.284)" style="fill:#ef5959"/>
                    </g>
                </g>
            </g>
        </g>
    </g>
</svg>
