<svg xmlns="http://www.w3.org/2000/svg" width="18.526" height="16" viewBox="0 0 18.526 16">
    <path d="M17 10.5v1.684a.842.842 0 1 1-1.684 0V10.5h-1.684a.842.842 0 1 1 0-1.684h1.684V7.132a.842.842 0 1 1 1.684 0v1.684h1.684a.842.842 0 1 1 0 1.684zm-9.263.421a4.211 4.211 0 1 1 4.211-4.211 4.211 4.211 0 0 1-4.211 4.211zm0-1.684a2.526 2.526 0 1 0-2.526-2.526 2.526 2.526 0 0 0 2.526 2.526zM1 16.816v-1.684a3.368 3.368 0 0 1 3.368-3.368h6.737a3.368 3.368 0 0 1 3.368 3.368v1.684a1.684 1.684 0 0 1-1.684 1.684H2.684A1.684 1.684 0 0 1 1 16.816zm1.684 0h10.105v-1.684a1.684 1.684 0 0 0-1.684-1.684H4.368a1.684 1.684 0 0 0-1.684 1.684z" transform="translate(-1 -2.5)" style="fill:#19284b"/>
</svg>
