<svg xmlns="http://www.w3.org/2000/svg" width="74.258" height="60.471" viewBox="0 0 74.258 60.471">
    <path data-name="Path 46749" d="M74.541 30.884 66.8 15.438a9.467 9.467 0 0 0-8.5-5.287h-3.9a9.494 9.494 0 0 0-9.093-6.911H7.3a6.076 6.076 0 0 0-6.05 6.047v41.466A6.076 6.076 0 0 0 7.3 56.8h4.734a9.431 9.431 0 0 0 18.176 0h16.341a9.431 9.431 0 0 0 18.176 0h4.734a6.076 6.076 0 0 0 6.047-6.047V35.1a9.6 9.6 0 0 0-1-4.25zM62.17 17.753l6.6 13.131H54.81v-15.55h3.49a4.286 4.286 0 0 1 3.87 2.419zM6.433 50.787V9.322a.855.855 0 0 1 .867-.864h38.01a4.321 4.321 0 0 1 4.319 4.319v34.209a9.429 9.429 0 0 0-3.041 4.665H30.241a9.431 9.431 0 0 0-18.176 0H7.332a.855.855 0 0 1-.864-.864zm14.686 7.775a4.319 4.319 0 1 1 4.319-4.319 4.321 4.321 0 0 1-4.319 4.319zm34.555 0a4.319 4.319 0 1 1 4.319-4.319 4.321 4.321 0 0 1-4.319 4.319zM69.5 51.651h-4.738a9.494 9.494 0 0 0-9.088-6.911 6.57 6.57 0 0 0-.864.1V36.1h15.55v14.687a.855.855 0 0 1-.86.864zM18.527 26.6a2.61 2.61 0 0 1 2.592-2.592s3.24 1.08 4.319 0 0-4.319 0-4.319a2.592 2.592 0 1 1 5.183 0v4.319h4.319a2.592 2.592 0 1 1 0 5.183h-4.318v4.319a2.592 2.592 0 0 1-5.183 0v-4.319h-4.32a2.61 2.61 0 0 1-2.592-2.591z" style="fill:#fd6ba3" transform="translate(-1.25 -3.24)"/>
</svg>
