<svg xmlns="http://www.w3.org/2000/svg" width="77" height="77" viewBox="0 0 77 77">
    <defs>
        <filter id="uz5lxbc8ha" x="0" y="0" width="77" height="77" filterUnits="userSpaceOnUse">
            <feOffset dy="5"/>
            <feGaussianBlur stdDeviation="2.5" result="blur"/>
            <feFlood flood-opacity=".051"/>
            <feComposite operator="in" in2="blur"/>
            <feComposite in="SourceGraphic"/>
        </filter>
    </defs>
    <g data-name="Group 16286">
        <g style="filter:url(#uz5lxbc8ha)">
            <circle data-name="Ellipse 8" cx="31" cy="31" r="31" transform="translate(7.5 2.5)" style="fill:#2d3d68"/>
        </g>
        <g data-name="Group 5041">
            <path data-name="Path 2035" d="M54.321 118.409a7.256 7.256 0 0 1-.6-2.9 7.147 7.147 0 0 1 .113-1.271 6.469 6.469 0 0 1 2.6-4.17 6.559 6.559 0 0 1 .745-.454 7.1 7.1 0 0 0-5.621-3.161c-1.993-.208-4.8 1.554-6.327 1.554H45.2c-1.525 0-4.334-1.762-6.327-1.554a8.239 8.239 0 0 0-6.076 3.711 9.778 9.778 0 0 0-1.4 4.121 15 15 0 0 0-.1 2.006 16.287 16.287 0 0 0 .167 2.127 17.917 17.917 0 0 0 1.137 4.164 18.938 18.938 0 0 0 2.071 3.787c1.7 2.408 3.626 3.8 4.713 3.823 2.231.05 4.17-1.459 5.77-1.42a.134.134 0 0 0 .05 0H45.247a.119.119 0 0 0 .048-.005c1.6-.041 3.541 1.469 5.777 1.419 1.083-.025 3.011-1.416 4.711-3.824a18.714 18.714 0 0 0 2.066-3.79c.087-.212.169-.428.251-.647a6.206 6.206 0 0 1-3.779-3.516z" transform="translate(-6.39 -82.733)" style="fill:#fff"/>
        </g>
        <g data-name="Group 5042">
            <path data-name="Path 2036" d="M223.577 5.1A6.887 6.887 0 0 0 225.07.019a7.4 7.4 0 0 0-4.744 2.351 6.643 6.643 0 0 0-1.492 5.081 6.976 6.976 0 0 0 4.743-2.351z" transform="translate(-180.832 16.311)" style="fill:#fff"/>
        </g>
    </g>
</svg>
