<svg data-name="Iconly/Bold/Voice" xmlns="http://www.w3.org/2000/svg" width="17" height="20" viewBox="0 0 17 20">
    <path data-name="Voice" d="M7.532 19.043v-1.925A8.443 8.443 0 0 1 0 8.783a.962.962 0 0 1 .968-.957.963.963 0 0 1 .969.957 6.563 6.563 0 0 0 13.125 0 .969.969 0 0 1 1.938 0 8.443 8.443 0 0 1-7.531 8.335v1.925a.968.968 0 0 1-1.937 0zm.793-5.826a4.326 4.326 0 0 1-4.351-4.3V4.3A4.324 4.324 0 0 1 8.325 0h.35a4.325 4.325 0 0 1 4.352 4.3v4.62a4.326 4.326 0 0 1-4.352 4.3z" style="fill:#fff"/>
</svg>
