<svg xmlns="http://www.w3.org/2000/svg" width="40" height="40" viewBox="0 0 40 40">
    <g data-name="Group 36792">
        <g data-name="Group 36793">
            <path data-name="Rectangle 28" style="fill:none" d="M0 0h40v40H0z"/>
            <g data-name="noun-blood-2532125">
                <path data-name="Rectangle 28" style="fill:none" d="M0 0h40v40H0z"/>
                <g data-name="Group 36795">
                    <path data-name="Path 46775" d="M104.6 6.295a11.5 11.5 0 0 0-3.868-4.34A14.2 14.2 0 0 0 94.977.09a11.183 11.183 0 0 0-7.1 1.341 7.859 7.859 0 0 0-3.762 5.194 4.31 4.31 0 0 1-.765 1.765 3.725 3.725 0 0 1-2.105.955c-.833.182-1.62.354-2.024 1.108-.425.794.087 1.444.58 1.922.146.141.3.276.45.406a6.316 6.316 0 0 1 .56.527.781.781 0 0 1 .206.347c.045.287-.068.358-.4.52a1.242 1.242 0 0 0-.694.612 1.052 1.052 0 0 0 .124.955.769.769 0 0 1 .1.359.709.709 0 0 1-.125.43 1.773 1.773 0 0 0-.294.682A2.07 2.07 0 0 0 80 18.454a2.279 2.279 0 0 1 .273.9 2.057 2.057 0 0 1-.239.709 2.3 2.3 0 0 0-.019 2.479c.448.66 1.409.782 2.522.924a5.744 5.744 0 0 1 3.8 1.462c1.774 1.982.714 6.576.7 6.623a.253.253 0 0 0 .492.116c.047-.2 1.132-4.9-.818-7.076A6.219 6.219 0 0 0 82.6 22.96c-.991-.126-1.848-.235-2.168-.707a1.81 1.81 0 0 1 .061-1.984 2.341 2.341 0 0 0 .285-.92 2.682 2.682 0 0 0-.318-1.1 2.538 2.538 0 0 1-.248-.72 15.072 15.072 0 0 1 3.067.544 10.1 10.1 0 0 1 5.426 3.5c2.85 3.919 2.146 9.941 2.139 10a.253.253 0 0 0 .251.284h5.069a.253.253 0 0 0 .253-.262 46.632 46.632 0 0 0-.6-5.517c-.691-4.053-1.776-7.071-3.227-8.97a14.031 14.031 0 0 0-6.139-4.671 11.154 11.154 0 0 0-6.4-.522c-.476-.489-.588-.849-.388-1.222.294-.549.939-.69 1.686-.853a4.175 4.175 0 0 0 2.369-1.106 4.641 4.641 0 0 0 .88-1.97 7.331 7.331 0 0 1 3.542-4.9A10.687 10.687 0 0 1 94.921.593a13.669 13.669 0 0 1 5.54 1.787 11.435 11.435 0 0 1 4.726 11.881c-.746 4.092-3.342 5.965-5.238 7.333-1.1.795-1.972 1.423-2.28 2.26-.829 2.256 1.266 7.616 1.356 7.843a.253.253 0 1 0 .47-.186c-.021-.054-2.115-5.407-1.352-7.483.255-.692 1.07-1.28 2.1-2.025 1.966-1.418 4.658-3.36 5.44-7.652a12.342 12.342 0 0 0-1.083-8.056zm-24.214 8.684c.067-.163.243-.249.447-.348a.936.936 0 0 0 .68-1.053.826.826 0 0 0-.037-.146 10.889 10.889 0 0 1 3.685.985 10.435 10.435 0 0 1 2.834 2 22.228 22.228 0 0 0-3.664-.669 16.689 16.689 0 0 0-3.721.059 1.293 1.293 0 0 0-.13-.319.587.587 0 0 1-.094-.509z" transform="translate(-70.141 3.922)" style="fill:#fff"/>
                    <path data-name="Path 46776" d="M252.878 127.335a.253.253 0 0 0 .212.061 4.765 4.765 0 0 0 2.827-1.431 5.071 5.071 0 0 0 1.165-2.8l1.425.326a.253.253 0 0 0 .268-.384l-1.8-2.77a.253.253 0 0 0-.343-.078l-2.825 1.712a.253.253 0 0 0 .075.463l1.464.335a4.267 4.267 0 0 1-4.358 2.257.253.253 0 0 0-.182.44z" transform="translate(-230.953 -108.704)" style="fill:#fff"/>
                    <path data-name="Path 46777" d="M309.392 226.353a.253.253 0 0 0 .11.26l2.766 1.807a.253.253 0 0 0 .345-.067l1.894-2.707a.253.253 0 0 0-.255-.393l-1.436.277a5.07 5.07 0 0 0-1.069-2.834 4.766 4.766 0 0 0-2.778-1.526.253.253 0 0 0-.214.054l-2.134 1.8a.253.253 0 0 0 .167.446 4.265 4.265 0 0 1 4.279 2.4l-1.475.285a.253.253 0 0 0-.2.198z" transform="translate(-283.234 -203.265)" style="fill:#fff"/>
                    <path data-name="Path 46778" d="M243.938 32.065a.253.253 0 0 0 0 .506c2.027-.006 3.483-.7 3.995-1.89.458-1.07.11-2.4-.98-3.731a13.275 13.275 0 0 0-10.13-4.337c-1.719.133-2.918.8-3.377 1.866-.655 1.531.352 3.562 2.628 5.3a.253.253 0 0 0 .307-.4c-2.052-1.567-3.021-3.411-2.47-4.7.381-.889 1.429-1.443 2.951-1.561a12.778 12.778 0 0 1 9.7 4.152c.965 1.183 1.287 2.324.907 3.213-.428.999-1.715 1.576-3.531 1.582z" transform="translate(-214.587 -17.238)" style="fill:#fff"/>
                    <path data-name="Path 46779" d="M5.2 91.671C1.544 91.007.63 87.484.507 84.646a.253.253 0 0 0-.507.022C.19 89 1.955 91.6 5.107 92.169a.253.253 0 1 0 .09-.5z" transform="translate(3.92 -75.148)" style="fill:#fff"/>
                    <path data-name="Path 46780" d="M4.733 191.9a5.814 5.814 0 0 1-2.655-.337 2.88 2.88 0 0 1-1.591-1.637.253.253 0 1 0-.468.192 3.407 3.407 0 0 0 1.86 1.909 5.727 5.727 0 0 0 2.25.4q.309 0 .638-.022a.253.253 0 1 0-.034-.5z" transform="translate(3.921 -173.858)" style="fill:#fff"/>
                </g>
            </g>
        </g>
    </g>
</svg>
