<svg xmlns="http://www.w3.org/2000/svg" width="40" height="32" viewBox="0 0 40 32">
    <g data-name="Group 22" transform="translate(-305 -571)">
        <rect data-name="Rectangle 22" width="40" height="32" rx="16" transform="translate(305 571)" style="fill:#59e584"/>
        <g data-name="Iconly/Bold/Calling">
            <path data-name="Calling" d="M11.808 17.5C7.947 15.89 2.048 10.108.489 6.277-.159 4.85-.163 3.673.478 2.79.733 2.375 2.19.641 3.494.7a1.677 1.677 0 0 1 1.015.531 11.891 11.891 0 0 1 2.023 2.806 2.01 2.01 0 0 1-.38 1.463c-.241.421-.884 1.218-.716 1.684a10.342 10.342 0 0 0 5.484 5.328c.455.166 1.252-.477 1.671-.72a1.99 1.99 0 0 1 1.454-.382 12.079 12.079 0 0 1 2.8 2.064 1.67 1.67 0 0 1 .526 1.009c.049 1.334-1.764 2.857-2.094 3.046a2.539 2.539 0 0 1-1.52.471 4.671 4.671 0 0 1-1.949-.5zm1.543-10.362a3.115 3.115 0 0 0-2.469-2.475.774.774 0 0 1 .294-1.52 4.658 4.658 0 0 1 3.69 3.7.778.778 0 0 1-.61.91.85.85 0 0 1-.149.014.774.774 0 0 1-.756-.629zm3.11-.067a6.221 6.221 0 0 0-5.514-5.524.777.777 0 0 1-.39-1.381.736.736 0 0 1 .563-.158A7.755 7.755 0 0 1 17.995 6.9a.771.771 0 0 1-.68.855.635.635 0 0 1-.087.006.771.771 0 0 1-.766-.69z" transform="translate(315 578)" style="fill:#fff"/>
        </g>
    </g>
</svg>
