<svg xmlns="http://www.w3.org/2000/svg" width="16" height="16" viewBox="0 0 16 16">
    <path d="m2.045 15.015.7-1.855a5.608 5.608 0 0 1 .22-5.951A.7.7 0 0 1 4.126 8a4.2 4.2 0 0 0-.019 4.7.7.7 0 0 1 .073.638l-.275.725.725-.275a.7.7 0 0 1 .638.073 4.207 4.207 0 0 0 4.5.107.7.7 0 1 1 .723 1.2 5.6 5.6 0 0 1-5.689.053l-1.855.7a.7.7 0 0 1-.902-.906zM12.9 12.782a5.615 5.615 0 1 1 2.71-2.379l.7 1.855a.7.7 0 0 1-.9.9l-1.855-.7a5.585 5.585 0 0 1-.655.324zm1.277-2.206a.7.7 0 0 1 .073-.638 4.217 4.217 0 1 0-1.16 1.162.7.7 0 0 1 .638-.073l.725.275z" transform="translate(-.965 -1)" style="fill:#fff" data-name="Group 17030"/>
</svg>
