<svg data-name="Iconly/Bold/Chat" xmlns="http://www.w3.org/2000/svg" width="18" height="18" viewBox="0 0 18 18">
    <path data-name="Chat" d="M9 18a8.959 8.959 0 0 1-4.428-1.171 1.979 1.979 0 0 0-1-.382 1.092 1.092 0 0 0-.344.057l-1.818.541a.678.678 0 0 1-.2.032.558.558 0 0 1-.45-.215.583.583 0 0 1-.085-.52l.6-2.019a.941.941 0 0 0-.063-.811A9.51 9.51 0 0 1 0 9.014a9.142 9.142 0 0 1 2.548-6.285A8.9 8.9 0 0 1 9.018 0a8.879 8.879 0 0 1 6.408 2.695 9.052 9.052 0 0 1 1.889 2.864A8.9 8.9 0 0 1 18 8.986a9.125 9.125 0 0 1-.779 3.755 8.639 8.639 0 0 1-2.048 2.838A9.22 9.22 0 0 1 9 18zm4.131-10.131a1.153 1.153 0 1 0 1.152 1.153 1.154 1.154 0 0 0-1.152-1.153zm-4.166 0A1.141 1.141 0 0 0 7.83 9.014a1.152 1.152 0 1 0 1.152-1.145h-.017zm-4.132 0a1.153 1.153 0 1 0 1.152 1.154 1.154 1.154 0 0 0-1.152-1.154z" style="fill:#fff"/>
</svg>
