<svg xmlns="http://www.w3.org/2000/svg" width="55.997" height="60.471" viewBox="0 0 55.997 60.471">
    <g data-name="Group 36779">
        <g data-name="Group 36777">
            <path data-name="Path 46752" d="M62.025 35.218a6.556 6.556 0 1 0-8.725 6.174v3.947a13.3 13.3 0 0 1-26.607 0V42.92a17.2 17.2 0 0 0 14.959-15.4l1.273-13.3A8.6 8.6 0 0 0 40.7 7.529a8.812 8.812 0 0 0-4.71-2.673A4.281 4.281 0 0 0 32.172 2.5a4.328 4.328 0 1 0 0 8.657 4.2 4.2 0 0 0 3.5-1.91 4.309 4.309 0 0 1 1.846 1.146 4.5 4.5 0 0 1 1.146 3.31l-1.273 13.3a12.851 12.851 0 0 1-25.589 0L10.53 13.7a4.034 4.034 0 0 1 1.146-3.31 4.309 4.309 0 0 1 1.846-1.146 4.271 4.271 0 0 0 7.829-2.419A4.5 4.5 0 0 0 16.832 2.5a4.355 4.355 0 0 0-3.819 2.355 8.707 8.707 0 0 0-6.938 9.357l1.273 13.3a17.074 17.074 0 0 0 14.959 15.4v2.355a17.664 17.664 0 1 0 35.328 0v-3.938a6.529 6.529 0 0 0 4.39-6.111z" transform="translate(-6.029 -2.5)" style="fill:#fd6ba3"/>
        </g>
        <g data-name="Group 36778">
            <path data-name="Path 46753" d="M22.369 27.009a4.633 4.633 0 0 0 .7 5.411l6.365 6.365a1.078 1.078 0 0 0 1.464 0l6.429-6.429a4.391 4.391 0 0 0-.827-6.811 4.633 4.633 0 0 0-5.411.7l-.889.955-1.02-1.018a4.382 4.382 0 0 0-6.811.827z" transform="translate(-11.757 -10.65)" style="fill:#fd6ba3"/>
        </g>
    </g>
</svg>
