<svg xmlns="http://www.w3.org/2000/svg" width="40" height="40" viewBox="0 0 40 40">
    <path data-name="Rectangle 28" style="fill:none" d="M0 0h40v40H0z"/>
    <path data-name="Path 46782" d="M11.146 12.622a7.035 7.035 0 1 1 12.9.434c.36.164.734.351 1.108.558a.879.879 0 0 1-.854 1.537c-.41-.228-.823-.428-1.216-.6A7.035 7.035 0 0 1 12.02 14.2a8.421 8.421 0 0 0-4.039 2.245 7.038 7.038 0 0 0-1.723 5.02v1.317a5.286 5.286 0 0 0 8.042 4.51l5.135-3.138a2.258 2.258 0 1 0-2.361-3.849L12 23.431a.879.879 0 0 1-.922-1.5l5.08-3.126a4.016 4.016 0 1 1 4.2 6.848l-5.135 3.138a6.942 6.942 0 0 1-5.442.812V32.9a.879.879 0 1 1-1.759 0v-4.02a6.973 6.973 0 0 1-3.517-6.1v-1.315a8.783 8.783 0 0 1 2.192-6.217 9.9 9.9 0 0 1 4.449-2.626zm1.267-2.588a5.274 5.274 0 1 1 .8 2.8.872.872 0 0 0-.1-.172 5.252 5.252 0 0 1-.699-2.628z" transform="translate(2.532 1.546)" style="fill-rule:evenodd;fill:#fff"/>
    <path data-name="Path 46783" d="M18.259 16.379a.879.879 0 1 0-1.759 0v7.034a.879.879 0 1 0 1.759 0z" transform="translate(11.635 11.028)" style="fill:#fff"/>
    <path data-name="Path 46784" d="M19.574 12a.879.879 0 0 0-1.244-1.243l-2.487 2.487a.879.879 0 0 0 1.243 1.243z" transform="translate(10.942 7.235)" style="fill:#fff"/>
    <path data-name="Path 46785" d="M16.879 13.5a.879.879 0 0 0 0 1.759H20.4a.879.879 0 1 0 0-1.759z" transform="translate(11.256 9.511)" style="fill:#fff"/>
</svg>
