<svg xmlns="http://www.w3.org/2000/svg" width="40" height="40" viewBox="0 0 40 40">
    <path data-name="Rectangle 28" style="fill:none" d="M0 0h40v40H0z"/>
    <g data-name="noun-blood-2532125">
        <path data-name="Rectangle 28" style="fill:none" d="M0 0h40v40H0z"/>
        <path data-name="Path 46786" d="M58.787 32.423a.376.376 0 1 0-.532.532l.983.942-1.269.041a.389.389 0 1 0 .041.778l2.17-.082a.379.379 0 0 0 .246-.655z" transform="translate(-32.429 -17.59)" style="fill:#fff;stroke:#fff;stroke-width:.35px"/>
        <path data-name="Path 46787" d="M68.086 54.554a.394.394 0 0 0-.368.7l1.965.942a.394.394 0 0 0 .368-.7z" transform="translate(-38.288 -30.714)" style="fill:#fff;stroke:#fff;stroke-width:.35px"/>
        <path data-name="Path 46788" d="M74.568 50.2a.368.368 0 0 0 0 .737h2.293a.368.368 0 0 0 0-.737z" transform="translate(-42.233 -28.162)" style="fill:#fff;stroke:#fff;stroke-width:.35px"/>
        <path data-name="Path 46789" d="M68.377 61.6a.345.345 0 0 0-.287.082.35.35 0 0 0-.041.532l1.433 1.8a.388.388 0 0 0 .532.082.35.35 0 0 0 .041-.532l-1.433-1.8c-.081-.082-.163-.164-.245-.164z" transform="translate(-38.539 -34.894)" style="fill:#fff;stroke:#fff;stroke-width:.35px"/>
        <path data-name="Path 46790" d="M70.168 50.2a.368.368 0 0 0 0 .737h.573a.368.368 0 0 0 0-.737z" transform="translate(-39.634 -28.162)" style="fill:#fff;stroke:#fff;stroke-width:.35px"/>
        <path data-name="Path 46791" d="M75.686 58.154a.394.394 0 1 0-.368.7l.532.246a.394.394 0 0 0 .368-.7z" transform="translate(-42.777 -32.84)" style="fill:#fff;stroke:#fff;stroke-width:.35px"/>
        <path data-name="Path 46792" d="M65.291 58.393a.35.35 0 0 0-.041.532l.368.45a.35.35 0 0 0 .532.041.388.388 0 0 0 .082-.532l-.368-.45a.5.5 0 0 0-.573-.041z" transform="translate(-36.885 -32.956)" style="fill:#fff;stroke:#fff;stroke-width:.35px"/>
        <path data-name="Path 46793" d="m33.912 22.643-.86-2.825a2.245 2.245 0 0 1 .082-1.269 7.393 7.393 0 0 0 .409-1.515v-.86c0-.2-.041-.409-.041-.614a.246.246 0 0 0-.041-.164c-.041-.2-.041-.368-.082-.573 0-.082-.041-.164-.041-.246l-.123-.491a.15.15 0 0 0-.041-.123v-.041a8.04 8.04 0 0 0-1.556-2.784 9.371 9.371 0 0 0-4.258-2.907 10.656 10.656 0 0 0-2.947-.531A8.793 8.793 0 0 0 17 11.343a9.555 9.555 0 0 0-.819 8.639 20.047 20.047 0 0 1 .983 2.538 2.327 2.327 0 0 1-.409 2.129c-3.4 4.3-6.51 7.124-8.393 12.938a.453.453 0 1 0 .86.287c1.842-5.609 4.79-8.311 8.27-12.569a3.189 3.189 0 0 0 .573-2.907 14.186 14.186 0 0 0-1.024-2.7 8.545 8.545 0 0 1 .737-7.738 8.114 8.114 0 0 1 9.294-2.784 8.889 8.889 0 0 1 3.808 2.62 7.159 7.159 0 0 1 1.433 2.7 1.266 1.266 0 0 1 .082.328c.041.123.041.246.082.368 0 .082.041.2.041.287 0 .164.041.328.041.491v.983a8.277 8.277 0 0 1-.368 1.31 2.966 2.966 0 0 0-.082 1.8l.819 2.825a.514.514 0 0 1-.041.368c-.041.082-.041.082-.2.082l-1.024-.123a.445.445 0 0 0-.491.287c-.041.328-.041.7-.082 1.064a.15.15 0 0 1-.123-.041 2.777 2.777 0 0 0-1.474-.164 1.386 1.386 0 0 0-.942.9 1.562 1.562 0 0 0 0 1.351 2.143 2.143 0 0 0 1.228.983c.123.041.123.082.2.123a9.016 9.016 0 0 0-.368.86c-.082.287-.164.368-.328.368a2.169 2.169 0 0 1-1.146-.328l-2.17-1.105a9.984 9.984 0 0 1-1.474-.86.467.467 0 0 0-.573.737 8.217 8.217 0 0 0 1.105.7l-2.7 3.316a2.107 2.107 0 0 0-.368.9 7.417 7.417 0 0 0-4.79-1.679.45.45 0 1 0 0 .9c2.7 0 4.012 1.146 5.486 2.62a13.953 13.953 0 0 1 3.234 3.767.458.458 0 0 0 .819-.409 14.557 14.557 0 0 0-3.4-4.012l-.041-.041a1.746 1.746 0 0 1-.409-.778.971.971 0 0 1 .164-.778l2.825-3.48 1.883.942a3 3 0 0 0 1.72.45 1.361 1.361 0 0 0 1.065-1.024 2.447 2.447 0 0 1 .409-.983.692.692 0 0 0 .041-.573.59.59 0 0 0-.246-.287 2.206 2.206 0 0 0-.532-.287 1.8 1.8 0 0 1-.778-.532.827.827 0 0 1 .041-.532c.082-.2.246-.328.328-.328a2.535 2.535 0 0 1 .983.164 2.869 2.869 0 0 0 .573.123.586.586 0 0 0 .409-.123.708.708 0 0 0 .246-.491 1.4 1.4 0 0 1 .123-.7l.573.082a1.2 1.2 0 0 0 1.105-.491 1.957 1.957 0 0 0 .124-1.183z" transform="translate(-3.336 -3.061)" style="fill:#fff;stroke:#fff;stroke-width:.35px"/>
    </g>
</svg>
