<svg xmlns="http://www.w3.org/2000/svg" width="40" height="40" viewBox="0 0 40 40">
    <path data-name="Rectangle 28" style="fill:none" d="M0 0h40v40H0z"/>
    <g data-name="noun-blood-2532125">
        <path data-name="Rectangle 28" style="fill:none" d="M0 0h40v40H0z"/>
        <g data-name="Group 36799">
            <path data-name="Path 46799" d="m28.312 9.394-.839.839a7.333 7.333 0 0 1-10.38 10.137l1.258-1.258a5.55 5.55 0 0 0 6.44-.073l-.841-.839a4.388 4.388 0 0 1-1.546.632V17.31a2.9 2.9 0 0 0 1.714-4.138l-.853.853a1.794 1.794 0 0 1 .1.555 1.849 1.849 0 1 1-1.381-1.763l.893-.893a2.9 2.9 0 0 0-4.138 1.714H17.2a4.407 4.407 0 1 1 8 3.312l.841.841a5.567 5.567 0 0 0-4.222-8.838V7.188a7.3 7.3 0 0 1 4 1.383l.839-.839a8.555 8.555 0 1 0 1.662 1.662zm-9.7 5.422a2.878 2.878 0 0 0 2.617 2.615v1.483a4.407 4.407 0 0 1-4.1-4.1h1.483zm-4.437-.294a7.353 7.353 0 0 1 6.465-7.288v1.782a5.569 5.569 0 0 0-3.18 9.326l-1.247 1.247a7.318 7.318 0 0 1-2.038-5.067z" transform="translate(-5.93 -1.868)" style="fill:#fff"/>
            <g data-name="Group 36798">
                <path data-name="Path 46800" d="M57.351 22.228a1.175 1.175 0 0 0-1.175-1.175A1.175 1.175 0 0 0 55 22.228a1.175 1.175 0 0 0 1.175 1.172 1.175 1.175 0 0 0 1.175-1.175z" transform="translate(-23.246 -8.074)" style="fill:#fff"/>
                <path data-name="Path 46801" d="M53.351 14.228a1.175 1.175 0 0 0-1.175-1.175A1.175 1.175 0 0 0 51 14.228a1.175 1.175 0 0 0 1.175 1.172 1.175 1.175 0 0 0 1.175-1.175z" transform="translate(-21.596 -4.776)" style="fill:#fff"/>
                <path data-name="Path 46802" d="M46.351 8.175A1.175 1.175 0 0 0 45.175 7 1.175 1.175 0 0 0 44 8.175a1.175 1.175 0 0 0 1.175 1.175 1.175 1.175 0 0 0 1.175-1.175z" transform="translate(-18.71 -2.28)" style="fill:#fff"/>
                <path data-name="Path 46803" d="M49.281 29H46.93v4.7h-4.114v5.91a1.344 1.344 0 0 1-1.175 1.144h-6.466a1.175 1.175 0 1 0 0 2.351h1.763v4.114h2.351v-4.114h2.351a3.686 3.686 0 0 0 3.526-3.5v-3.552h4.114z" transform="translate(-14.588 -11.35)" style="fill:#fff"/>
                <path data-name="Rectangle 7144" transform="translate(9 27.001)" style="fill:#fff" d="M0 0h3v9H0z"/>
                <path data-name="Path 46804" d="M12.351 31.175A1.175 1.175 0 0 0 11.175 30 1.175 1.175 0 0 0 10 31.175a1.175 1.175 0 0 0 1.175 1.175 1.175 1.175 0 0 0 1.175-1.175z" transform="translate(-4.693 -11.762)" style="fill:#fff"/>
                <path data-name="Path 46805" d="M15.351 39.175A1.175 1.175 0 0 0 14.175 38 1.175 1.175 0 0 0 13 39.175a1.175 1.175 0 0 0 1.175 1.175 1.175 1.175 0 0 0 1.175-1.175z" transform="translate(-5.93 -15.061)" style="fill:#fff"/>
            </g>
        </g>
    </g>
</svg>
