<svg xmlns="http://www.w3.org/2000/svg" width="40" height="40" viewBox="0 0 40 40">
    <path data-name="Rectangle 28" style="fill:none" d="M0 0h40v40H0z"/>
    <path data-name="Path 46794" d="M5 20.451a9.275 9.275 0 0 1 .143-1.6 14.026 14.026 0 0 1 .492-1.958c.154-.482.328-.963.523-1.425a30.72 30.72 0 0 1 .748-1.66c.2-.4.4-.789.615-1.179.246-.441.492-.871.748-1.312a52.316 52.316 0 0 1 2.357-3.628q1.707-2.414 3.557-4.715a2.584 2.584 0 0 1 4.182 0 95.41 95.41 0 0 1 3.577 4.746 50.25 50.25 0 0 1 2.357 3.639c.471.789.912 1.6 1.322 2.419.328.656.625 1.312.892 1.988a18.314 18.314 0 0 1 .81 2.644 9.081 9.081 0 0 1 .225 2.04A11.274 11.274 0 1 1 5 20.451zm2.05 0a7.155 7.155 0 0 1 .113-1.24 13.588 13.588 0 0 1 .42-1.691 20.605 20.605 0 0 1 1.171-2.798c.184-.379.369-.748.574-1.107.225-.42.461-.83.707-1.25A50.783 50.783 0 0 1 12.3 8.88a99.588 99.588 0 0 1 3.505-4.653.562.562 0 0 1 .943 0q1.83 2.291 3.526 4.674a52.216 52.216 0 0 1 2.265 3.505c.451.748.861 1.517 1.261 2.3.3.594.564 1.2.81 1.824a16.648 16.648 0 0 1 .717 2.337 7.543 7.543 0 0 1 .174 1.589 9.225 9.225 0 0 1-18.449 0z" transform="translate(3.726 2.983)" style="fill-rule:evenodd;fill:#fff"/>
    <path data-name="Path 46795" d="M21.575 16.424a1.052 1.052 0 0 1 .031-.789 1.012 1.012 0 0 1 .574-.533 1.052 1.052 0 0 1 .789.031 1.012 1.012 0 0 1 .533.574 18.982 18.982 0 0 1 .666 2.255 8.844 8.844 0 0 1 .256 2.009 8.351 8.351 0 0 1-11 7.923A1.027 1.027 0 0 1 13.3 26a1.025 1.025 0 0 1 .779-.051 6.294 6.294 0 0 0 8.292-5.955 7.3 7.3 0 0 0-.195-1.568 17.233 17.233 0 0 0-.601-2.002z" transform="translate(3.919 3.311)" style="fill:#fff"/>
</svg>
