<svg xmlns="http://www.w3.org/2000/svg" width="40" height="40.001" viewBox="0 0 40 40.001">
    <path data-name="Rectangle 28" style="fill:none" d="M0 0h40v40H0z"/>
    <g data-name="noun-blood-2532125">
        <path data-name="Rectangle 28" transform="translate(0 .001)" style="fill:none" d="M0 0h40v40H0z"/>
        <g data-name="Group 36803">
            <g data-name="Group 36802">
                <path data-name="Path 46839" d="M186.7 173.521h7.728v31.643H183c.125-.026.253-.042.375-.079a1.157 1.157 0 0 0 .871-.9.979.979 0 0 0-.521-1.041 1.7 1.7 0 0 0-.583-.215 2.954 2.954 0 0 0-.607-.035 4.52 4.52 0 0 1-3.646-1.614 4.682 4.682 0 0 1-1.22-2.986c-.011-.5.117-.585.585-.4a12.538 12.538 0 0 0 5.27.884 8.857 8.857 0 0 0 3.869-1.056 4.433 4.433 0 0 0 1.982-1.975 2.066 2.066 0 0 0 .229-1.259 3.047 3.047 0 0 0-1.266-1.943 5.3 5.3 0 0 0-1.958-.869 18.9 18.9 0 0 0-2.258-.39 9.3 9.3 0 0 0-4.852.711 8.976 8.976 0 0 0-2.707 1.774.5.5 0 0 1-.841-.009 5.639 5.639 0 0 1-1.159-1.682 4.125 4.125 0 0 1-.147-2.958c.167-.521.476-.641.975-.44a18.038 18.038 0 0 0 6.253 1.31c1.109.033 2.223.013 3.331-.05a21.642 21.642 0 0 0 4.61-.718 8.079 8.079 0 0 0 2.2-.94 2.625 2.625 0 0 0 .947-3.075 3.623 3.623 0 0 0-1.646-1.733 10.213 10.213 0 0 0-3.348-1.084 21.751 21.751 0 0 0-6.7-.067 12.937 12.937 0 0 0-4.5 1.452 10.371 10.371 0 0 0-2.236 1.647.642.642 0 0 1-.823.188 8.057 8.057 0 0 1-2.231-1.675 2.528 2.528 0 0 1-.139-3.344 7.422 7.422 0 0 1 1.676-1.558 16.44 16.44 0 0 1 5.041-2.251 28.4 28.4 0 0 1 5.768-.907 32.7 32.7 0 0 1 4.953.082 28.088 28.088 0 0 1 4.273.765 1.683 1.683 0 0 0 .681.032 1.04 1.04 0 0 0 .839-1.014 1.108 1.108 0 0 0-.859-1.1 28.9 28.9 0 0 0-6.077-1.03c-.239-.012-.47-.061-.704-.091z" transform="translate(-161.287 -169.301)" style="fill:none"/>
                <path data-name="Path 46840" d="M175.632 173.52c.232.031.463.075.7.089a28.9 28.9 0 0 1 6.077 1.03 1.108 1.108 0 0 1 .859 1.1 1.04 1.04 0 0 1-.839 1.014 1.678 1.678 0 0 1-.681-.032 28.084 28.084 0 0 0-4.273-.765 32.717 32.717 0 0 0-4.953-.082 28.411 28.411 0 0 0-5.768.907 16.436 16.436 0 0 0-5.041 2.251 7.425 7.425 0 0 0-1.676 1.558 2.528 2.528 0 0 0 .139 3.344 8.055 8.055 0 0 0 2.231 1.675.642.642 0 0 0 .823-.188 10.366 10.366 0 0 1 2.236-1.647 12.928 12.928 0 0 1 4.5-1.452 21.751 21.751 0 0 1 6.7.067 10.213 10.213 0 0 1 3.348 1.084 3.623 3.623 0 0 1 1.646 1.733 2.625 2.625 0 0 1-.947 3.075 8.087 8.087 0 0 1-2.2.94 21.642 21.642 0 0 1-4.61.718 38.551 38.551 0 0 1-3.331.05 18.042 18.042 0 0 1-6.253-1.31c-.5-.2-.809-.081-.975.44a4.126 4.126 0 0 0 .147 2.958 5.636 5.636 0 0 0 1.159 1.682.5.5 0 0 0 .841.009 8.98 8.98 0 0 1 2.707-1.774 9.3 9.3 0 0 1 4.852-.711 18.9 18.9 0 0 1 2.258.39 5.3 5.3 0 0 1 1.958.869 3.047 3.047 0 0 1 1.266 1.943 2.064 2.064 0 0 1-.229 1.259 4.433 4.433 0 0 1-1.982 1.975 8.854 8.854 0 0 1-3.869 1.056 12.535 12.535 0 0 1-5.27-.884c-.467-.182-.6-.1-.585.4a4.683 4.683 0 0 0 1.22 2.986 4.519 4.519 0 0 0 3.646 1.614 2.954 2.954 0 0 1 .607.035 1.688 1.688 0 0 1 .583.215.979.979 0 0 1 .521 1.041 1.157 1.157 0 0 1-.871.9c-.122.037-.25.053-.375.079h-.569c-.294-.041-.588-.075-.881-.123a7.145 7.145 0 0 1-3.763-1.743 7.771 7.771 0 0 1-2.231-4.006 10.869 10.869 0 0 1-.212-2.423.95.95 0 0 0-.243-.63 4.587 4.587 0 0 0-.376-.37 8.521 8.521 0 0 1-2.312-3.3 4.917 4.917 0 0 1-.345-3.04c.105-.418.28-.819.407-1.232.178-.577.078-.8-.449-1.07a7.028 7.028 0 0 1-3.181-2.981 4.023 4.023 0 0 1-.5-2.72 6.413 6.413 0 0 1 2.243-3.584 14.389 14.389 0 0 1 3.948-2.309 27.808 27.808 0 0 1 8.673-1.992c.485-.038.97-.082 1.455-.122zm-2.473 10.818a24.692 24.692 0 0 0-3.833.325 9.224 9.224 0 0 0-3.292 1.282 2.144 2.144 0 0 0-.485.423.318.318 0 0 0 .136.519 3.86 3.86 0 0 0 .532.2 17.207 17.207 0 0 0 3.495.62 26.834 26.834 0 0 0 6.6-.286c.839-.143 1.67-.345 2.492-.563a1.771 1.771 0 0 0 .671-.429.4.4 0 0 0 .019-.618 2.056 2.056 0 0 0-.587-.487 6.909 6.909 0 0 0-1.266-.484 20.394 20.394 0 0 0-4.482-.502zm-1.555 12.22c.526-.033 1.055-.044 1.578-.1a4.889 4.889 0 0 0 2.272-.75 3.892 3.892 0 0 0 .688-.621.406.406 0 0 0-.018-.591 1.4 1.4 0 0 0-.394-.343 5.489 5.489 0 0 0-.966-.414 9.411 9.411 0 0 0-4.145-.139 6.993 6.993 0 0 0-2.85 1.119 2.4 2.4 0 0 0-.42.377.309.309 0 0 0 .022.471 1.758 1.758 0 0 0 .508.317 11.937 11.937 0 0 0 3.721.673z" transform="translate(-150.218 -169.3)" style="fill:#fff;fill-rule:evenodd"/>
                <path data-name="Path 46841" d="M173.4 173.521c-.485.041-.97.084-1.455.122a27.813 27.813 0 0 0-8.673 1.992 14.387 14.387 0 0 0-3.948 2.309 6.411 6.411 0 0 0-2.243 3.584 4.023 4.023 0 0 0 .5 2.72 7.03 7.03 0 0 0 3.181 2.981c.527.272.627.493.449 1.07-.128.413-.3.814-.407 1.232a4.917 4.917 0 0 0 .345 3.04 8.521 8.521 0 0 0 2.312 3.3 4.534 4.534 0 0 1 .376.37.95.95 0 0 1 .243.63 10.871 10.871 0 0 0 .212 2.423 7.772 7.772 0 0 0 2.231 4.006 7.145 7.145 0 0 0 3.763 1.743c.292.048.587.082.881.123h-14.192v-31.645z" transform="translate(-150.023 -169.301)" style="fill:none"/>
                <path data-name="Path 46842" d="M213.613 237.353a20.4 20.4 0 0 1 4.483.5 6.913 6.913 0 0 1 1.266.484 2.057 2.057 0 0 1 .587.487.4.4 0 0 1-.019.618 1.769 1.769 0 0 1-.671.429c-.823.218-1.654.42-2.492.563a26.835 26.835 0 0 1-6.6.286 17.2 17.2 0 0 1-3.495-.62 3.861 3.861 0 0 1-.532-.2.318.318 0 0 1-.136-.519 2.144 2.144 0 0 1 .485-.423 9.224 9.224 0 0 1 3.292-1.282 24.712 24.712 0 0 1 3.832-.323z" transform="translate(-190.671 -222.315)" style="fill:none"/>
                <path data-name="Path 46843" d="M220.819 294.142a11.928 11.928 0 0 1-3.725-.677 1.756 1.756 0 0 1-.508-.317.309.309 0 0 1-.022-.471 2.415 2.415 0 0 1 .42-.377 7 7 0 0 1 2.85-1.119 9.41 9.41 0 0 1 4.145.139 5.485 5.485 0 0 1 .966.414 1.393 1.393 0 0 1 .394.343.406.406 0 0 1 .018.591 3.876 3.876 0 0 1-.688.621 4.889 4.889 0 0 1-2.272.75c-.523.061-1.052.07-1.578.103z" transform="translate(-199.432 -266.884)" style="fill:none"/>
            </g>
        </g>
    </g>
</svg>
