<svg xmlns="http://www.w3.org/2000/svg" width="22.993" height="25.773" viewBox="0 0 22.993 25.773">
    <g data-name="Group 36328">
        <path data-name="Path 46679" d="M32.846 62.688a7.59 7.59 0 0 0-5.959-7.411 3.823 3.823 0 0 1 1.091 2.365 1.854 1.854 0 1 1-.856.011 2.987 2.987 0 0 0-1.522-2.292l-4.249 3.982-4.318-4.043a2.981 2.981 0 0 0-1.663 2.577.941.941 0 0 1 .38.424 3.539 3.539 0 0 1 1.558 1.753.609.609 0 0 1 .027.458 5.523 5.523 0 0 1 .388 1.913c0 .817 0 1.59-.891 1.788a.536.536 0 0 1-.344.124h-.6a.542.542 0 0 1-.542-.542v-.038a.545.545 0 0 1 .54-.5h.6a.537.537 0 0 1 .178.03.187.187 0 0 0 .048-.018 3.133 3.133 0 0 0 .066-.842 4.541 4.541 0 0 0-.326-1.578.611.611 0 0 1-.248-.266c-.361-.756-.852-1.244-1.251-1.244s-.923.527-1.282 1.312a.612.612 0 0 1-.288.294 4.422 4.422 0 0 0-.291 1.481 2.92 2.92 0 0 0 .076.843.3.3 0 0 0 .065.022.546.546 0 0 1 .194-.036h.6a.541.541 0 0 1 .537.479V63.776a.547.547 0 0 1-.541.563h-.6a.538.538 0 0 1-.327-.111 1.031 1.031 0 0 1-.733-.459 2.538 2.538 0 0 1-.217-1.342 5.43 5.43 0 0 1 .376-1.878.6.6 0 0 1 .036-.406 4.516 4.516 0 0 1 .928-1.366 2.575 2.575 0 0 1 .623-.449.953.953 0 0 1 .4-.451 3.816 3.816 0 0 1 1.051-2.538 7.59 7.59 0 0 0-5.714 7.353c0 3.779 2.761 3.964 6.377 3.964h10.238c3.623-.004 6.385-.189 6.385-3.968zm-6.651.794a.189.189 0 0 1-.2.178h-1.082v1.083a.19.19 0 0 1-.178.2h-1.07a.19.19 0 0 1-.178-.2v-1.084H22.4a.189.189 0 0 1-.2-.178v-1.068a.19.19 0 0 1 .2-.178h1.083v-1.084a.19.19 0 0 1 .178-.2h1.069a.19.19 0 0 1 .178.2v1.083H26a.189.189 0 0 1 .2.178z" transform="translate(-9.853 -40.88)" style="fill:#2d3d68"/>
        <circle data-name="Ellipse 1746" cx="6.556" cy="6.556" r="6.556" transform="translate(4.941)" style="fill:#2d3d68"/>
        <circle data-name="Ellipse 1747" cx=".855" cy=".855" r=".855" transform="translate(16.866 17.714)" style="fill:#2d3d68"/>
    </g>
</svg>
