<svg xmlns="http://www.w3.org/2000/svg" width="30.356" height="27.072" viewBox="0 0 30.356 27.072">
    <g data-name="Group 37281">
        <path data-name="Path 46898" d="M120.813 158.089h17.326v-7.62a8.669 8.669 0 0 0-8.67-8.67 8.669 8.669 0 0 0-8.67 8.67l.013 7.62zm15.446-6.241a.58.58 0 0 1-1.159 0v-1.082a.58.58 0 1 1 1.159 0zm-4.65-7.581a.578.578 0 0 1 .741-.348c.155.058 3.729 1.411 3.832 5a.576.576 0 0 1-.56.593h-.022a.578.578 0 0 1-.58-.56c-.077-2.815-3.047-3.935-3.072-3.942a.575.575 0 0 1-.34-.743z" transform="translate(-114.333 -135.623)" style="fill:#fff"/>
        <path data-name="Path 46899" d="M102.24 419.406H83.078v-.006h-.554a1.223 1.223 0 0 0-1.224 1.224v.567a1.223 1.223 0 0 0 1.224 1.224h19.587a1.223 1.223 0 0 0 1.224-1.224v-.567a1.223 1.223 0 0 0-1.095-1.218z" transform="translate(-77.377 -395.343)" style="fill:#fff"/>
        <path data-name="Path 46900" d="M243.557 51.156a.856.856 0 0 0 .857-.857v-3.542a.857.857 0 0 0-1.713 0v3.549a.855.855 0 0 0 .856.85z" transform="translate(-228.382 -45.9)" style="fill:#fff"/>
        <path data-name="Path 46901" d="M414.406 256.4h-3.549a.86.86 0 0 0-.857.857.86.86 0 0 0 .857.857h3.549a.86.86 0 0 0 .857-.857.865.865 0 0 0-.857-.857z" transform="translate(-384.906 -242.842)" style="fill:#fff"/>
        <path data-name="Path 46902" d="M25.656 257.257a.856.856 0 0 0-.857-.857h-3.542a.86.86 0 0 0-.857.857.86.86 0 0 0 .857.857h3.549a.855.855 0 0 0 .85-.857z" transform="translate(-20.4 -242.842)" style="fill:#fff"/>
        <path data-name="Path 46903" d="m72.793 115 2.718 2.28a.855.855 0 1 0 1.1-1.308l-2.718-2.28a.856.856 0 0 0-1.2.1.857.857 0 0 0 .1 1.208z" transform="translate(-69.134 -109.136)" style="fill:#fff"/>
        <path data-name="Path 46904" d="m372.156 117.277 2.718-2.28a.851.851 0 0 0 .1-1.2.856.856 0 0 0-1.2-.1l-2.718 2.28a.855.855 0 1 0 1.1 1.308z" transform="translate(-348.182 -109.136)" style="fill:#fff"/>
    </g>
</svg>
