<svg data-name="Iconly/Bold/Call Missed" xmlns="http://www.w3.org/2000/svg" width="20" height="20" viewBox="0 0 20 20">
    <path data-name="Call Missed" d="M13.3 19.439C8.949 17.623 2.306 11.109.549 6.791-.178 5.185-.184 3.86.537 2.864.825 2.4 2.466.445 3.934.506a1.884 1.884 0 0 1 1.143.6A13.314 13.314 0 0 1 7.356 4.27a2.269 2.269 0 0 1-.427 1.643c-.273.474-1 1.372-.807 1.9a11.651 11.651 0 0 0 6.176 6c.514.186 1.41-.538 1.881-.812a2.241 2.241 0 0 1 1.638-.429 13.523 13.523 0 0 1 3.154 2.328 1.878 1.878 0 0 1 .594 1.138c.054 1.5-1.986 3.218-2.359 3.432a2.861 2.861 0 0 1-1.712.53 5.276 5.276 0 0 1-2.194-.561zm5.192-11.855-2.4-2.413-2.4 2.413a.9.9 0 0 1-1.248 0 .89.89 0 0 1 0-1.254l2.4-2.413L12.435 1.5a.89.89 0 0 1 0-1.254.9.9 0 0 1 1.248 0l2.4 2.413 2.4-2.413a.9.9 0 0 1 1.248 0 .888.888 0 0 1 0 1.254l-2.4 2.413 2.4 2.413a.888.888 0 0 1 0 1.254.879.879 0 0 1-1.248 0z" style="fill:#fff"/>
</svg>
