<svg xmlns="http://www.w3.org/2000/svg" width="20" height="16" viewBox="0 0 20 16">
    <g data-name="Iconly/Bold/Show" style="opacity:.4">
        <path data-name="Show" d="M9.99 16C5.861 16 2.148 13.115.059 8.281a.724.724 0 0 1 0-.571C2.146 2.882 5.858 0 9.99 0H10a9.306 9.306 0 0 1 5.737 2.046 14.235 14.235 0 0 1 4.2 5.664.725.725 0 0 1 0 .571C17.851 13.115 14.135 16 10 16zM6.1 8A3.9 3.9 0 1 0 10 4.121 3.89 3.89 0 0 0 6.1 8zm1.462 0a2.487 2.487 0 0 1 .049-.475h.049a2 2 0 0 0 2-1.921 1.989 1.989 0 0 1 .34-.03A2.419 2.419 0 1 1 7.562 8z" style="fill:#d8effe"/>
    </g>
</svg>
