<svg xmlns="http://www.w3.org/2000/svg" width="16" height="16" viewBox="0 0 16 16">
    <path d="M4.841 2.421A2.421 2.421 0 1 1 2.421 0a2.418 2.418 0 0 1 2.42 2.421z" transform="translate(5.579 5.579)" style="stroke:#d8effe;stroke-linecap:round;stroke-linejoin:round;stroke-width:1.5px;fill:none"/>
    <path data-name="Vector" d="M6.5 10.963A7.324 7.324 0 0 0 12.556 7.2a3.518 3.518 0 0 0 0-3.438A7.324 7.324 0 0 0 6.5 0 7.324 7.324 0 0 0 .449 3.762a3.518 3.518 0 0 0 0 3.438A7.324 7.324 0 0 0 6.5 10.963z" transform="translate(1.498 2.515)" style="stroke:#d8effe;stroke-linecap:round;stroke-linejoin:round;stroke-width:1.5px;fill:none"/>
</svg>
