<svg xmlns="http://www.w3.org/2000/svg" width="20" height="17" viewBox="0 0 20 17">
    <g data-name="Iconly/Bold/Hide" style="opacity:.4">
        <path data-name="Hide" d="M1.784 16.783a.738.738 0 0 1-.088-.925l.029-.04L16.156 1.257A.247.247 0 0 0 16.2 1.2a.327.327 0 0 0 .049-.059l.917-.925A.743.743 0 0 1 17.691 0a.723.723 0 0 1 .514.214.722.722 0 0 1 .219.522.722.722 0 0 1-.219.521L16.43 3.049a14.776 14.776 0 0 1 3.513 5.159.765.765 0 0 1 0 .581C17.851 13.7 14.135 16.626 10 16.626h-.01a9.091 9.091 0 0 1-5.279-1.752l-1.893 1.91A.728.728 0 0 1 2.3 17a.7.7 0 0 1-.516-.217zM7.8 11.752A3.892 3.892 0 0 0 13.892 8.5a3.989 3.989 0 0 0-.673-2.216l-1.064 1.078a2.481 2.481 0 0 1 .274 1.138A2.444 2.444 0 0 1 10 10.955a2.409 2.409 0 0 1-1.132-.275zM.059 8.793a.747.747 0 0 1 0-.58C2.147 3.309 5.864.385 9.992.385H10a8.851 8.851 0 0 1 4 .965l-3.257 3.289a4.506 4.506 0 0 0-.743-.07 3.92 3.92 0 0 0-3.9 3.939 4.566 4.566 0 0 0 .068.748L2.556 12.9A15.833 15.833 0 0 1 .059 8.793z" style="fill:#d8effe"/>
    </g>
</svg>
