<svg xmlns="http://www.w3.org/2000/svg" width="40" height="40" viewBox="0 0 40 40">
    <path data-name="Rectangle 28" style="fill:none" d="M0 0h40v40H0z"/>
    <g data-name="Group 36797">
        <path data-name="Path 46796" d="M38.72 60.106 36.7 47.038a3.162 3.162 0 0 0-1.147-1.988L31.4 41.719a.68.68 0 0 0-.855 1.058l4.155 3.338a1.8 1.8 0 0 1 .658 1.14l2.012 13.068a1.378 1.378 0 0 1-.095.76 7.065 7.065 0 0 0-12.193-1.676 3.945 3.945 0 0 0-2.931-1.126 3.945 3.945 0 0 0-2.931 1.126 7.064 7.064 0 0 0-12.213 1.73 1.439 1.439 0 0 1-.122-.814L8.9 47.255a1.821 1.821 0 0 1 .658-1.14l4.152-3.338a.68.68 0 1 0-.855-1.058L8.71 45.057a3.162 3.162 0 0 0-1.147 1.988L5.548 60.106A2.726 2.726 0 0 0 6.6 62.711a7.576 7.576 0 0 0-.068.963 7.073 7.073 0 1 0 13.5-2.958c.068-.631 1.153-1.092 2.131-1.092s2.063.461 2.131 1.092a7 7 0 0 0-.651 2.965 7.07 7.07 0 1 0 14.14 0 8.027 8.027 0 0 0-.068-1 2.743 2.743 0 0 0 1.005-2.575zm-25.111 9.289a5.713 5.713 0 1 1 5.713-5.713 5.718 5.718 0 0 1-5.713 5.713zm17.1 0a5.713 5.713 0 1 1 5.713-5.713 5.718 5.718 0 0 1-5.715 5.713z" transform="translate(-1.973 -36.123)" style="fill:#fff"/>
        <path data-name="Path 46797" d="M69.874 301.282a4.07 4.07 0 0 0-4.648-.509 3.77 3.77 0 0 0-2.232 3.331 3.515 3.515 0 0 0 1.581 3.053 3.885 3.885 0 0 0 3.915-.285 2.393 2.393 0 0 0 .875-2.605 2.245 2.245 0 0 0-1.527-1.757 2.568 2.568 0 0 0-2.4.577 1.4 1.4 0 0 0-.438 1.364c.278 1.113.943 1.384 1.316 1.445a1.575 1.575 0 0 0 1.5-.6.731.731 0 0 0 .041-.814.348.348 0 0 0-.468-.109.34.34 0 0 0-.1.468.7.7 0 0 1-.57.387c-.5.088-.875-.244-1.052-.943a.751.751 0 0 1 .265-.712 1.881 1.881 0 0 1 1.73-.414 1.573 1.573 0 0 1 1.058 1.262 1.727 1.727 0 0 1-.617 1.913 3.262 3.262 0 0 1-3.175.237 2.868 2.868 0 0 1-1.242-2.456 3.133 3.133 0 0 1 1.873-2.741 3.389 3.389 0 0 1 3.895.427 3.748 3.748 0 0 1 1.364 3.752 4.385 4.385 0 0 1-1.954 2.49 5.5 5.5 0 0 1-3.691.59.34.34 0 1 0-.1.672 7.531 7.531 0 0 0 1.153.088 5.219 5.219 0 0 0 5.245-3.637 4.425 4.425 0 0 0-1.597-4.474z" transform="translate(-55.551 -277.272)" style="fill:#fff"/>
        <path data-name="Path 46798" d="M316.219 302.412a3.885 3.885 0 0 0-3.915.285 2.393 2.393 0 0 0-.875 2.605 2.245 2.245 0 0 0 1.527 1.757 2.568 2.568 0 0 0 2.4-.577 1.4 1.4 0 0 0 .448-1.364c-.278-1.113-.943-1.384-1.316-1.445a1.575 1.575 0 0 0-1.5.6.731.731 0 0 0-.041.814.348.348 0 0 0 .468.109.34.34 0 0 0 .1-.468.7.7 0 0 1 .57-.387c.5-.088.875.244 1.052.943a.751.751 0 0 1-.265.712 1.88 1.88 0 0 1-1.73.414 1.573 1.573 0 0 1-1.058-1.262 1.727 1.727 0 0 1 .617-1.913 3.262 3.262 0 0 1 3.175-.237 2.868 2.868 0 0 1 1.242 2.456 3.132 3.132 0 0 1-1.873 2.741 3.389 3.389 0 0 1-3.895-.427 3.748 3.748 0 0 1-1.364-3.752 4.385 4.385 0 0 1 1.954-2.49 5.5 5.5 0 0 1 3.691-.59.338.338 0 0 0 .387-.285.343.343 0 0 0-.285-.387c-3.053-.468-5.571.923-6.4 3.549a4.383 4.383 0 0 0 1.574 4.478 4.078 4.078 0 0 0 4.648.509 3.77 3.77 0 0 0 2.232-3.331 3.5 3.5 0 0 0-1.568-3.057z" transform="translate(-285.036 -277.187)" style="fill:#fff"/>
    </g>
</svg>
