<svg xmlns="http://www.w3.org/2000/svg" width="16" height="16" viewBox="0 0 16 16">
    <path d="M10.7 13.646a.834.834 0 0 1 1.179 1.179L9.52 17.183a4.168 4.168 0 0 1-5.895-5.895L5.983 8.93a.834.834 0 0 1 1.179 1.179L4.8 12.467A2.5 2.5 0 0 0 8.341 16zm0-7.074a.834.834 0 0 1-1.18-1.179l1.768-1.768a4.168 4.168 0 0 1 5.895 5.895l-1.768 1.768a.834.834 0 0 1-1.179-1.179L16 8.341A2.5 2.5 0 0 0 12.467 4.8zm1.474.884a.834.834 0 0 1 1.179 1.179l-4.718 4.716a.834.834 0 0 1-1.179-1.179z" transform="translate(-2.404 -2.404)" style="fill:#19284b"/>
</svg>
