<svg xmlns="http://www.w3.org/2000/svg" width="40" height="40" viewBox="0 0 40 40">
    <path data-name="Rectangle 28" style="fill:none" d="M0 0h40v40H0z"/>
    <g data-name="noun-blood-2532125">
        <path data-name="Rectangle 28" style="fill:none" d="M0 0h40v40H0z"/>
        <g data-name="Group 36804">
            <path data-name="Path 46844" d="M100.807 26.41a8.623 8.623 0 0 1 1.706.531l-.83 1.332a7.146 7.146 0 0 0-1.259-.361zm-3.355 4.177-2.318-5.015-.592 1.184-1.785-3.7 1.573-.708.855 1.892.475-.95 1.792 7.3zm3.6-.388 2.647-4.252-2.359-.417 3.572-4.482 1.35 1.074-1.762 2.215 2.589.457zm-2.211-4.787-.919.084.39-4.04 1.714.162-.753 2.736 1.778-.871-1.716 6.747zm4.933 18.967v4.06l8.981 3.91-.616 1.416-9.913-4.316v-3.786a3.48 3.48 0 0 1-1.769.549h-2.9a3.48 3.48 0 0 1-1.769-.549v3.788l-9.913 4.316-.617-1.416 8.981-3.91V44.38c-1.9-2.016-3.348-5.218-3.348-7.083v-3.453a8.043 8.043 0 0 1 4.388-6.8l.649 1.4a5.83 5.83 0 0 0-3.488 5.4V37.3c0 2.059 2.872 7.366 5.117 7.366h2.9c2.246 0 5.117-5.307 5.117-7.366v-3.456a5.759 5.759 0 0 0-2.485-4.819l1.175-1.053a7.29 7.29 0 0 1 2.859 5.872V37.3c.001 1.862-1.447 5.065-3.348 7.081zM98.6 27.791a7.506 7.506 0 0 0-1.292.182l-.37-1.5a8.971 8.971 0 0 1 1.5-.22z" transform="translate(-78.88 -17.129)" style="fill:#fff"/>
        </g>
    </g>
</svg>
