<svg xmlns="http://www.w3.org/2000/svg" width="40" height="40" viewBox="0 0 40 40">
    <path data-name="Rectangle 28" style="fill:none" d="M0 0h40v40H0z"/>
    <g data-name="noun-blood-2532125">
        <path data-name="Rectangle 28" style="fill:none" d="M0 0h40v40H0z"/>
        <g data-name="Layer 2">
            <g data-name="Layer 1">
                <path data-name="Path 46863" d="M12.882 30.93a11.177 11.177 0 0 1-9.221-7.211C2.054 22.994 0 21.081 0 18.71a5.444 5.444 0 0 1 1.469-3.92c-.658-4.6.174-8.4 2.417-11.026a11.538 11.538 0 0 1 9-3.764 11.4 11.4 0 0 1 8.829 3.669c2.273 2.631 3.155 6.471 2.553 11.143a5.561 5.561 0 0 1 1.5 3.9 6.029 6.029 0 0 1-3.679 5.065 11.194 11.194 0 0 1-9.207 7.153zm0-29.714a10.353 10.353 0 0 0-8.07 3.337c-2.059 2.408-2.786 5.993-2.093 10.365a.608.608 0 0 1-.213.563 4.194 4.194 0 0 0-1.291 3.23c0 1.911 1.882 3.509 3.155 3.989a.608.608 0 0 1 .369.405c1.366 4.65 6.378 6.617 8.143 6.617s6.749-1.965 8.13-6.585a.608.608 0 0 1 .393-.405 4.789 4.789 0 0 0 3.142-4.022 4.219 4.219 0 0 0-1.318-3.21.608.608 0 0 1-.2-.549c.632-4.457-.14-8.078-2.229-10.487a10.238 10.238 0 0 0-7.918-3.248zm8.345 6.907a.608.608 0 1 0-1.216 0 7.667 7.667 0 0 1-7.652 7.658 6.013 6.013 0 0 1-6.011-6.005 4.686 4.686 0 0 1 4.682-4.683 3.629 3.629 0 0 1 3.627 3.619 2.782 2.782 0 0 1-2.78 2.784 2.105 2.105 0 0 1-2.1-2.1 1.562 1.562 0 0 1 1.56-1.56.608.608 0 1 0 0-1.216A2.78 2.78 0 0 0 8.56 9.395a3.323 3.323 0 0 0 3.317 3.317 4 4 0 0 0 4-4 4.846 4.846 0 0 0-4.842-4.84 5.9 5.9 0 0 0-5.9 5.9A7.229 7.229 0 0 0 12.359 17a8.882 8.882 0 0 0 8.868-8.874zm-9.239.551a.776.776 0 1 0 .776.776.776.776 0 0 0-.776-.776z" transform="translate(7.372 4.68)" style="fill:#fff;stroke:#fff;stroke-width:.65px"/>
            </g>
        </g>
    </g>
</svg>
