<svg xmlns="http://www.w3.org/2000/svg" width="25.501" height="25.713" viewBox="0 0 25.501 25.713">
    <path data-name="Path 46680" d="M22.985 24.372a8.39 8.39 0 0 0-3.878-15.831H19l1.222-2.709-.9-.425.85-1.859L16.45 1.9l-.85 1.913-.9-.425-5.422 12.219.9.425-.85 1.913 3.719 1.647.85-1.913.9.425 2.6-5.791h1.763a4.682 4.682 0 0 1 4.675 4.675 4.505 4.505 0 0 1-1.753 3.612 3.189 3.189 0 0 0-2.709-1.434 3.254 3.254 0 0 0-3.241 3.241v.372l-10.626-2.55-.266 1.063 10.838 2.6v2.656H2v1.063h25.5v-1.06h-4.2zm-3.666.053a1.6 1.6 0 0 1-1.594-1.594 1.565 1.565 0 0 1 1.594-1.594 1.6 1.6 0 0 1 1.594 1.594 1.633 1.633 0 0 1-1.594 1.594z" transform="translate(-2 -1.9)" style="fill:#2d3d68"/>
</svg>
