<svg xmlns="http://www.w3.org/2000/svg" width="234.431" height="258.117" viewBox="0 0 234.431 258.117">
    <defs>
        <linearGradient id="8kpkx3vyea" x1=".5" x2=".5" y2="1" gradientUnits="objectBoundingBox">
            <stop offset="0" stop-color="#23355f"/>
            <stop offset="1" stop-color="#132141"/>
        </linearGradient>
        <linearGradient id="hbuaea6y8b" x1=".5" x2=".5" y2="1" gradientUnits="objectBoundingBox">
            <stop offset="0" stop-color="#86e18e"/>
            <stop offset="1" stop-color="#5dba41"/>
        </linearGradient>
    </defs>
    <g data-name="Group 23746">
        <g data-name="Group 10076">
            <g data-name="Group 9791">
                <path data-name="Union 1" d="M667.684-864.793v-79.87h8.874v-22.778a48.9 48.9 0 0 1 48.81-48.809 48.9 48.9 0 0 1 48.809 48.809v22.778h8.874v79.87zm79.87-79.87v-22.778a22.194 22.194 0 0 0-22.186-22.186 22.2 22.2 0 0 0-22.187 22.186v22.778z" transform="translate(-614.355 1069.58)" style="fill:#040b1c"/>
                <g data-name="padlock">
                    <g data-name="Path 3163" transform="translate(-28.797 37.33)" style="fill:url(#8kpkx3vyea)">
                        <path d="M189.618 77.024h-28.623V48.809a21.13 21.13 0 0 0-6.208-14.978 21.13 21.13 0 0 0-14.978-6.208c-2.859 0-5.632.56-8.243 1.665a21.131 21.131 0 0 0-6.735 4.543 21.13 21.13 0 0 0-6.208 14.978v28.215H90V48.809c0-6.706 1.32-13.22 3.924-19.36a49.793 49.793 0 0 1 10.69-15.835 49.793 49.793 0 0 1 15.834-10.69A49.318 49.318 0 0 1 139.81-1c6.707 0 13.22 1.32 19.361 3.924a49.793 49.793 0 0 1 15.835 10.69 49.793 49.793 0 0 1 10.689 15.834 49.318 49.318 0 0 1 3.924 19.361v28.215z" style="stroke:none"/>
                        <path d="M139.81 0C112.92 0 91 21.92 91 48.81v27.214h26.623V48.809c0-12.246 9.94-22.186 22.186-22.186 12.247 0 22.186 9.94 22.186 22.186v27.215h26.623V48.809C188.618 21.92 166.698 0 139.81 0m0-2a50.312 50.312 0 0 1 19.752 4.004 50.788 50.788 0 0 1 16.15 10.903 50.788 50.788 0 0 1 10.904 16.15 50.312 50.312 0 0 1 4.003 19.752v29.215h-30.623V48.809a20.04 20.04 0 0 0-1.586-7.853 20.135 20.135 0 0 0-4.329-6.418 20.135 20.135 0 0 0-6.417-4.329 20.04 20.04 0 0 0-7.854-1.586 20.04 20.04 0 0 0-7.853 1.586 20.135 20.135 0 0 0-6.418 4.329 20.135 20.135 0 0 0-4.329 6.418 20.04 20.04 0 0 0-1.586 7.853v29.215H89V48.809a50.312 50.312 0 0 1 4.004-19.751 50.788 50.788 0 0 1 10.903-16.151 50.788 50.788 0 0 1 16.15-10.903A50.312 50.312 0 0 1 139.81-2z" style="fill:#2d3d68;stroke:none"/>
                    </g>
                    <g data-name="Path 3165" transform="translate(-7.671 -133.083)" style="fill:url(#8kpkx3vyea)">
                        <path d="M177.367 322.87H60V241h117.367v81.87z" style="stroke:none"/>
                        <path d="M61 242v79.87h115.367V242H61m-2-2h119.367v83.87H59V240z" style="fill:#2d3d68;stroke:none"/>
                    </g>
                    <g data-name="Group 9790">
                        <path data-name="Path 3166" d="M224.312 302a13.312 13.312 0 1 0 13.312 13.312A13.293 13.293 0 0 0 224.312 302z" transform="translate(-113.299 -175.334)" style="fill:#2d3d68"/>
                        <path data-name="Rectangle 1910" transform="translate(107.013 149.081)" style="fill:#2d3d68" d="M0 0h8v22H0z"/>
                    </g>
                </g>
            </g>
            <g data-name="Group 9793">
                <path data-name="Path 3167" d="M35.458 28.942a21.866 21.866 0 0 1-5.237 8.158 27.412 27.412 0 0 1-10.235 6.064 3.13 3.13 0 0 1-.995.176h-.037a3.178 3.178 0 0 1-.61-.06 3.3 3.3 0 0 1-.42-.114 27.41 27.41 0 0 1-10.247-6.061 21.824 21.824 0 0 1-5.236-8.157C.326 23.208.447 16.885.543 11.8v-.078c.02-.42.032-.86.039-1.347a4.593 4.593 0 0 1 4.325-4.5A17.825 17.825 0 0 0 17.041.764l.029-.026a2.776 2.776 0 0 1 3.769 0l.028.026A17.827 17.827 0 0 0 33 5.878a4.593 4.593 0 0 1 4.325 4.5c.007.49.02.93.039 1.347v.033c.097 5.091.217 11.427-1.906 17.184zm0 0" transform="translate(152.023 168.23)" style="fill:url(#hbuaea6y8b)"/>
                <g data-name="surface1">
                    <path data-name="Path 3167" d="M49.533 40.6a30.669 30.669 0 0 1-7.346 11.443 38.449 38.449 0 0 1-14.356 8.506 4.391 4.391 0 0 1-1.4.246h-.052a4.457 4.457 0 0 1-.856-.084 4.625 4.625 0 0 1-.589-.16 38.447 38.447 0 0 1-14.372-8.5A30.612 30.612 0 0 1 3.223 40.6C.256 32.553.425 23.683.561 16.555v-.109c.027-.589.045-1.207.055-1.889a6.443 6.443 0 0 1 6.069-6.312c6.989-.39 12.4-2.67 17.016-7.173l.04-.037a3.894 3.894 0 0 1 5.287 0l.039.037c4.621 4.5 10.028 6.783 17.017 7.173a6.443 6.443 0 0 1 6.067 6.312c.01.687.027 1.3.055 1.889v.046c.137 7.141.305 16.028-2.673 24.108zm0 0" transform="translate(144.593 143.505)" style="fill:url(#hbuaea6y8b)"/>
                    <path data-name="Path 3169" d="M121.2 143.549a15.169 15.169 0 0 1-15.1 15.151h-.053a15.151 15.151 0 1 1 0-30.3h.053a15.169 15.169 0 0 1 15.1 15.149zm0 0" transform="translate(64.948 30.352)" style="fill:#fff"/>
                    <g data-name="Group 36528">
                        <path data-name="Path 2266" d="M335.995 352.716a2.2 2.2 0 0 0-3.051 0l-8.33 8.329-2.854-3.107a2.2 2.2 0 0 0-3.105 3.105l4.407 4.66a2.2 2.2 0 0 0 3.105 0l9.882-9.882a2.2 2.2 0 0 0-.054-3.105z" transform="translate(-156.375 -184.999)" style="fill:url(#hbuaea6y8b)"/>
                    </g>
                </g>
            </g>
        </g>
    </g>
</svg>
