<svg xmlns="http://www.w3.org/2000/svg" width="189.887" height="192.493" viewBox="0 0 189.887 192.493">
    <defs>
        <linearGradient id="qd6mqf3uba" x1=".5" x2=".5" y2="1" gradientUnits="objectBoundingBox">
            <stop offset="0" stop-color="#17274b"/>
            <stop offset="1" stop-color="#09132b"/>
        </linearGradient>
        <linearGradient id="4h46amsykb" x1=".5" x2=".5" y2="1" gradientUnits="objectBoundingBox">
            <stop offset="0" stop-color="#23355f"/>
            <stop offset="1" stop-color="#132141"/>
        </linearGradient>
        <linearGradient id="77xuoifvbc" x1=".5" x2=".5" y2="1" gradientUnits="objectBoundingBox">
            <stop offset="0" stop-color="#f3c356"/>
            <stop offset="1" stop-color="#e08e2e"/>
        </linearGradient>
    </defs>
    <g data-name="Group 36527">
        <g data-name="Group 36525">
            <path data-name="Union 3" d="M-20196.395 3822.81a8.662 8.662 0 0 1-6.184-2.584 8.664 8.664 0 0 1-2.66-6.26v-57.037a2.777 2.777 0 0 1 .152-.908v-14.9a5.71 5.71 0 0 1 1.779-4.138l17.123-16.231v-6.242a26.177 26.177 0 0 1 26.182-26.181h8.025l10.346-9.807a13.271 13.271 0 0 1 18.26 0l10.346 9.807h7.723a26.181 26.181 0 0 1 26.186 26.181v5.964l14.549 13.792a14.9 14.9 0 0 1 4.654 10.811v49.37a14.48 14.48 0 0 1-.156 2.132v17.391a8.689 8.689 0 0 1-7.967 8.662 8.731 8.731 0 0 1-1.775.182z" transform="translate(20227.518 -3652.598)" style="fill:url(#qd6mqf3uba)"/>
        </g>
        <g data-name="Group 36524" transform="translate(15716.679 -2768.344)">
            <path data-name="Path 46668" d="M465.01 444.891H348.621A14.391 14.391 0 0 1 334.23 430.5v-53.324a5.7 5.7 0 0 1 1.779-4.138l61.675-58.462a13.274 13.274 0 0 1 18.264 0l58.8 55.741a14.9 14.9 0 0 1 4.65 10.815V430.5a14.391 14.391 0 0 1-14.388 14.391z" transform="translate(-16028.478 2459.69)" style="stroke:#19284b;stroke-width:2px;fill:url(#4h46amsykb)"/>
            <path data-name="Path 46669" d="M240.954 387.992h143.961v58.149a8.69 8.69 0 0 1-8.69 8.69H249.644a8.69 8.69 0 0 1-8.69-8.69z" transform="translate(-15935.202 2463.724)" style="opacity:.1"/>
            <rect data-name="Rectangle 7034" width="107.064" height="107.064" rx="26.181" transform="translate(-15675.238 2783.879)" style="fill:#2d3d68"/>
            <path data-name="Path 46670" d="M410.518 395.942v58.84H303.454v-58.84l53.532 25.874z" transform="translate(-15978.8 2458.178)" style="opacity:.2"/>
            <path data-name="Path 46671" d="m406.315 560.247-68.591-33.153a2.783 2.783 0 0 0-3.994 2.506v57.04a8.69 8.69 0 0 0 8.69 8.69h127.791a8.69 8.69 0 0 0 8.69-8.69v-56.063a3.4 3.4 0 0 0-4.874-3.058z" transform="translate(-16028.129 2323.073)" style="stroke:#19284b;stroke-width:2px;fill:url(#4h46amsykb)"/>
            <g data-name="Group 36526">
                <path data-name="Path 46672" d="M27.431 3.192A14.346 14.346 0 0 0 18.286 0a19.725 19.725 0 0 0-4.942.673 16.154 16.154 0 0 0-9.2 6.293A17.35 17.35 0 0 0 .993 17.883c.21 5.1 2.4 8.945 6.5 11.419a15.383 15.383 0 0 0 8.051 2.225 22.253 22.253 0 0 0 6.932-1.213 1.668 1.668 0 0 0 1.057-.875 2.055 2.055 0 0 0-.065-1.655 1.428 1.428 0 0 0-1.333-1.015 2.786 2.786 0 0 0-.889.175 15.92 15.92 0 0 1-5.656.82c-4.883-.166-8.521-2.829-9.733-7.123a13.925 13.925 0 0 1 1.069-10.557 12.059 12.059 0 0 1 10.745-6.431 12.226 12.226 0 0 1 4.273.77c4.174 1.552 6.46 5.825 5.687 10.632-.437 2.716-1.444 4.32-3.17 5.046-.452.19-.758.2-.957-.035a4.214 4.214 0 0 1-.261-2.767c.156-1 .336-2.018.511-3 .243-1.374.495-2.8.688-4.206a1.61 1.61 0 0 0-.367-1.263C23.053 7.578 20.2 7.3 19.347 7.245c-.243-.016-.49-.024-.732-.024a10.645 10.645 0 0 0-7.764 3.292 10.407 10.407 0 0 0-2.9 7.724c.119 2.721 1.366 4.725 3.42 5.5a5.593 5.593 0 0 0 1.98.346 7.323 7.323 0 0 0 4.608-1.707 9.755 9.755 0 0 0 1.047-1.088 3.982 3.982 0 0 0 4 2.811 8.417 8.417 0 0 0 1.53-.154 8.263 8.263 0 0 0 5.564-3.717c2.645-3.991 3.212-12.355-2.669-17.036zM15.48 18.881a2.4 2.4 0 0 1-1.042.259 1.6 1.6 0 0 1-1.591-1.806c-.008-2.168 1.673-5.4 4.73-5.579.135-.008.266-.013.4-.013a4.714 4.714 0 0 1 1.344.2c-.124.376-.243.745-.36 1.108-.369 1.145-.718 2.226-1.139 3.271a4.736 4.736 0 0 1-2.342 2.56z" transform="translate(-15638.149 2823.019)" style="fill:url(#77xuoifvbc)"/>
                <g data-name="noun-at-3859648">
                    <path data-name="Path 46672" d="M36.055 4.233A19.021 19.021 0 0 0 23.93 0a26.154 26.154 0 0 0-6.553.893A21.418 21.418 0 0 0 5.184 9.235 23 23 0 0 0 1 23.713c.278 6.767 3.179 11.861 8.623 15.141A20.4 20.4 0 0 0 20.3 41.8a29.506 29.506 0 0 0 9.191-1.608 2.212 2.212 0 0 0 1.4-1.16 2.725 2.725 0 0 0-.086-2.194 1.893 1.893 0 0 0-1.768-1.346 3.694 3.694 0 0 0-1.178.232 21.109 21.109 0 0 1-7.5 1.088c-6.474-.22-11.3-3.75-12.9-9.445a18.463 18.463 0 0 1 1.41-14 15.989 15.989 0 0 1 14.245-8.523 16.21 16.21 0 0 1 5.666 1.021c5.535 2.057 8.565 7.723 7.54 14.1-.579 3.6-1.915 5.728-4.2 6.69-.6.252-1.005.261-1.269-.047-.537-.627-.56-2.294-.346-3.669.207-1.327.446-2.676.677-3.98.322-1.822.656-3.706.912-5.577a2.135 2.135 0 0 0-.487-1.675c-1.354-1.658-5.141-2.026-6.269-2.1a15.018 15.018 0 0 0-.971-.032 14.114 14.114 0 0 0-10.296 4.365 13.8 13.8 0 0 0-3.845 10.241c.158 3.608 1.811 6.265 4.535 7.292a7.416 7.416 0 0 0 2.625.459 9.709 9.709 0 0 0 6.11-2.263 12.934 12.934 0 0 0 1.388-1.442c1.066 2.568 2.737 3.727 5.307 3.727a11.161 11.161 0 0 0 2.028-.2 10.956 10.956 0 0 0 7.381-4.932c3.5-5.293 4.253-16.382-3.545-22.589zm-15.846 20.8a3.187 3.187 0 0 1-1.382.344 2.127 2.127 0 0 1-2.109-2.394c-.01-2.874 2.218-7.162 6.272-7.4a9.39 9.39 0 0 1 .526-.017 6.251 6.251 0 0 1 1.782.261c-.164.5-.322.988-.477 1.47-.489 1.518-.951 2.951-1.51 4.337a6.28 6.28 0 0 1-3.102 3.401z" transform="translate(-15643.208 2808.881)" style="fill:url(#77xuoifvbc)"/>
                </g>
            </g>
        </g>
    </g>
</svg>
