<svg xmlns="http://www.w3.org/2000/svg" width="40" height="40" viewBox="0 0 40 40">
    <path data-name="Rectangle 28" style="fill:none" d="M0 0h40v40H0z"/>
    <g data-name="noun-blood-2532125">
        <path data-name="Rectangle 28" style="fill:none" d="M0 0h40v40H0z"/>
        <g data-name="Group 36801">
            <path data-name="Path 46835" d="M3893.635 5959.641a1.027 1.027 0 0 1-1.44-.087 1.015 1.015 0 0 1 .087-1.435 8.668 8.668 0 0 1 11.357 0 1.015 1.015 0 0 1 .087 1.435 1.027 1.027 0 0 1-1.44.087 6.637 6.637 0 0 0-8.651 0z" transform="translate(-3877.74 -5930.595)" style="fill:#fff"/>
            <path data-name="Path 46836" d="M2016.3 2000a16.308 16.308 0 1 1-11.526 4.777A16.252 16.252 0 0 1 2016.3 2000zm10.086 6.217a14.26 14.26 0 1 0 4.179 10.086 14.218 14.218 0 0 0-4.177-10.086z" transform="translate(-1996.082 -1996.093)" style="fill:#fff"/>
            <path data-name="Path 46837" d="M3318.367 3420.988a1.018 1.018 0 0 1 1.44-1.44l4.086 4.087a1.019 1.019 0 0 1 0 1.44 1.086 1.086 0 0 1-.3.207l-4.641 2.679a1.015 1.015 0 1 1-1.011-1.76l3.57-2.06z" transform="translate(-3306.357 -3407.631)" style="fill:#fff"/>
            <path data-name="Path 46838" d="M5443.634 3419.548a1.018 1.018 0 0 1 1.44 1.44l-3.146 3.152 3.57 2.06a1.015 1.015 0 1 1-1.011 1.76l-4.641-2.679a1.072 1.072 0 0 1-.3-.207 1.019 1.019 0 0 1 0-1.44z" transform="translate(-5416.643 -3407.631)" style="fill:#fff"/>
        </g>
    </g>
</svg>
