<svg data-name="Iconly/Bold/Lock" xmlns="http://www.w3.org/2000/svg" width="17" height="20" viewBox="0 0 17 20">
    <path data-name="Lock" d="M12.732 20H4.269A4.227 4.227 0 0 1 0 15.826v-4.938a4.165 4.165 0 0 1 2.977-3.959V5.4A5.472 5.472 0 0 1 8.485 0 5.576 5.576 0 0 1 12.4 1.58a5.3 5.3 0 0 1 1.623 3.82v1.529A4.165 4.165 0 0 1 17 10.888v4.937A4.227 4.227 0 0 1 12.732 20zM8.5 11.384a.875.875 0 0 0-.884.865v2.206a.889.889 0 0 0 1.778 0v-2.206a.881.881 0 0 0-.894-.865zm.01-9.645a3.711 3.711 0 0 0-3.754 3.637v1.338h7.489V5.4a3.7 3.7 0 0 0-3.74-3.661z" style="fill:#57a5d8"/>
</svg>
