<svg xmlns="http://www.w3.org/2000/svg" width="16" height="16" viewBox="0 0 16 16">
    <path d="m1.655 2.743 1.372 1.371h8.63V1.371h-8.63zM2.743 0h9.6a.686.686 0 0 1 .686.686V4.8a.686.686 0 0 1-.686.686h-9.6a.686.686 0 0 1-.485-.2L.2 3.228a.686.686 0 0 1 0-.97L2.258.2a.686.686 0 0 1 .485-.2zm10.285 4.114h2.743V1.371h-2.743zM12.342 0h4.114a.686.686 0 0 1 .686.686V4.8a.686.686 0 0 1-.686.686h-4.114a.686.686 0 0 1-.686-.686V.686A.686.686 0 0 1 12.342 0z" transform="rotate(-45 14.631 6.06)" style="fill:#19284b"/>
</svg>
