<svg xmlns="http://www.w3.org/2000/svg" width="40" height="40" viewBox="0 0 40 40">
    <path data-name="Rectangle 28" style="fill:none" d="M0 0h40v40H0z"/>
    <path data-name="Path 46834" d="M16.506 3.444 3.444 16.506a7.514 7.514 0 0 0 10.633 10.62l13.062-13.062a7.509 7.509 0 0 0-10.62-10.62zm-3.827 22.3a5.582 5.582 0 0 1-7.863 0A5.468 5.468 0 0 1 3.2 21.81a5.544 5.544 0 0 1 1.62-3.932l5.839-5.839 7.85 7.85-5.839 5.839zm13.062-13.065L19.9 18.518l-7.85-7.85 5.839-5.839a5.56 5.56 0 0 1 7.863 7.863z" transform="translate(4.708 4.715)" style="fill:#fff"/>
</svg>
