<svg xmlns="http://www.w3.org/2000/svg" width="25.677" height="24.531" viewBox="0 0 25.677 24.531">
    <g data-name="Group 54">
        <path data-name="Path 23" d="M24.677 9.117q0-.573-.819-.655L16.433 7.37 13.048.6a.852.852 0 0 0-.71-.6.852.852 0 0 0-.71.6L8.3 7.37.874 8.462c-.6.055-.874.273-.874.655a1.025 1.025 0 0 0 .382.71l5.4 5.241-1.31 7.425a1.111 1.111 0 0 1-.055.273.922.922 0 0 0 .164.546.532.532 0 0 0 .491.218 1.423 1.423 0 0 0 .6-.164l6.661-3.494L19 23.367a1.244 1.244 0 0 0 .6.164.443.443 0 0 0 .437-.218.922.922 0 0 0 .164-.546v-.273l-1.256-7.425 5.4-5.241a1.622 1.622 0 0 0 .332-.711z" transform="translate(.5 .5)" style="fill:none;stroke:#78849e"/>
    </g>
</svg>
