<svg xmlns="http://www.w3.org/2000/svg" width="40" height="40.001" viewBox="0 0 40 40.001">
    <path data-name="Rectangle 28" transform="translate(0 .001)" style="fill:none" d="M0 0h40v40H0z"/>
    <g data-name="noun-blood-2532125">
        <path data-name="Rectangle 28" transform="translate(0 -.001)" style="fill:none" d="M0 0h40v40H0z"/>
        <g data-name="Group 36800">
            <path data-name="Path 46806" d="M28.207 11.167A9.736 9.736 0 0 0 21.5 28.406a6.445 6.445 0 0 1 1.738 2.259 6.758 6.758 0 0 1 .572 2.351 1.084 1.084 0 0 0-.644.991v.455h-.376a.383.383 0 0 0 0 .767h.373v1.007h-.373a.383.383 0 0 0 0 .767h.373v.455a1.1 1.1 0 0 0 1.094 1.094h.22a3.46 3.46 0 0 0 6.419 0h.225a1.094 1.094 0 0 0 1.089-1.094V37h.378a.383.383 0 0 0 0-.767h-.378v-1.005h.378a.383.383 0 1 0 0-.767h-.378v-.455a1.084 1.084 0 0 0-.644-.991 6.614 6.614 0 0 1 2.361-4.646 9.741 9.741 0 0 0-5.719-17.2zm3.235 26.289a.325.325 0 0 1-.322.327h-6.863a.329.329 0 0 1-.327-.327V37h7.513v.455zm0-2.995h-7.513v-.455a.329.329 0 0 1 .327-.327h6.864a.325.325 0 0 1 .322.327zm1.988-6.685a7.415 7.415 0 0 0-2.63 5.137h-6.22a7.386 7.386 0 0 0-.649-2.571 7.206 7.206 0 0 0-1.942-2.53 8.965 8.965 0 0 1 6.179-15.879 9.051 9.051 0 0 1 8.489 9.025 8.949 8.949 0 0 1-3.227 6.819z" transform="translate(-7.823 -4.581)" style="fill:#fff"/>
            <path data-name="Path 46807" d="M31.72 16.326a5.771 5.771 0 0 0-5.99 5.755 5.769 5.769 0 0 0 1.87 4.241 1.026 1.026 0 0 1 .332.751v2.274a1.8 1.8 0 0 0 1.8 1.8h3.531a1.8 1.8 0 0 0 1.8-1.8v-2.268a1.064 1.064 0 0 1 .348-.772 5.761 5.761 0 0 0-3.685-9.981zm3.164 9.419a1.818 1.818 0 0 0-.593 1.334v2.269a1.033 1.033 0 0 1-1.032 1.032h-.291v-2.974a.383.383 0 0 0-.767 0v2.974h-1.422v-2.974a.383.383 0 0 0-.767 0v2.974h-.286a1.03 1.03 0 0 1-1.032-1.032v-2.275a1.785 1.785 0 0 0-.583-1.319 5 5 0 0 1 3.383-8.668c.061 0 .128.005.194.005a4.993 4.993 0 0 1 3.194 8.652z" transform="translate(-11.626 -7.107)" style="fill:#fff"/>
            <path data-name="Path 46808" d="M39.13 27.375a3.346 3.346 0 0 0 1.431 2.484.39.39 0 0 0 .24.082.363.363 0 0 0 .271-.112 5.414 5.414 0 0 0 1.339-3.521.394.394 0 0 0-.327-.378 3.573 3.573 0 0 0-2.842 1.16.4.4 0 0 0-.112.285z" transform="translate(-18.178 -11.799)" style="fill:#fff"/>
            <path data-name="Path 46809" d="M31.624 27.089a3.56 3.56 0 0 0-2.836-1.16.384.384 0 0 0-.327.378 5.427 5.427 0 0 0 1.334 3.521.388.388 0 0 0 .511.031 3.33 3.33 0 0 0 1.431-2.484.377.377 0 0 0-.113-.286z" transform="translate(-12.961 -11.799)" style="fill:#fff"/>
            <path data-name="Path 46810" d="M36.324 30.83a.943.943 0 0 0-.813-.46h-.005a.938.938 0 0 0-.8.46l-.606 1.037a.943.943 0 0 0 .813 1.416h1.216a.939.939 0 0 0 .807-1.421z" transform="translate(-15.653 -13.976)" style="fill:#fff"/>
            <path data-name="Path 46811" d="M59.952 29.57h-1.309a.383.383 0 1 0 0 .767h1.308a.383.383 0 1 0 0-.767z" transform="translate(-27.531 -13.585)" style="fill:#fff"/>
            <path data-name="Path 46812" d="M13.372 29.57h-1.309a.383.383 0 1 0 0 .767h1.308a.386.386 0 0 0 .383-.383.38.38 0 0 0-.382-.384z" transform="translate(-4.757 -13.585)" style="fill:#fff"/>
            <path data-name="Path 46813" d="M57.153 17.477a.378.378 0 0 0-.521-.138l-1.135.654a.379.379 0 0 0-.138.521.332.332 0 0 0 .521.138L57.015 18a.378.378 0 0 0 .138-.523z" transform="translate(-26.087 -7.579)" style="fill:#fff"/>
            <path data-name="Path 46814" d="M47.447 10.144c.061.036.307.24.521-.138l.654-1.135a.381.381 0 0 0-.659-.383l-.654 1.135a.379.379 0 0 0 .138.521z" transform="translate(-22.152 -3.185)" style="fill:#fff"/>
            <path data-name="Path 46815" d="M36.633 7.075a.386.386 0 0 0 .383-.383V5.383a.383.383 0 1 0-.767 0v1.309a.386.386 0 0 0 .384.383z" transform="translate(-16.77 -1.572)" style="fill:#fff"/>
            <path data-name="Path 46816" d="M24.674 10a.4.4 0 0 0 .521.138.385.385 0 0 0 .138-.521l-.654-1.135a.381.381 0 0 0-.659.383z" transform="translate(-10.764 -3.179)" style="fill:#fff"/>
            <path data-name="Path 46817" d="M16.824 18.516a.375.375 0 0 0-.138-.521l-1.135-.654a.381.381 0 1 0-.383.659l1.135.654a.425.425 0 0 0 .521-.138z" transform="translate(-6.37 -7.58)" style="fill:#fff"/>
        </g>
    </g>
</svg>
