<svg xmlns="http://www.w3.org/2000/svg" width="40" height="40" viewBox="0 0 40 40">
    <path data-name="Rectangle 28" style="fill:none" d="M0 0h40v40H0z"/>
    <g data-name="noun-blood-2532125">
        <path data-name="Rectangle 28" transform="translate(0 -.001)" style="fill:none" d="M0 0h40v40H0z"/>
        <path data-name="Path 46845" d="M34.9 18.75A16.155 16.155 0 1 0 51.06 34.9 16.155 16.155 0 0 0 34.9 18.75zm0 31.018A14.863 14.863 0 1 1 49.768 34.9 14.863 14.863 0 0 1 34.9 49.768z" transform="translate(-14.964 -14.814)" style="fill:#fff;stroke:#fff;stroke-width:.5px"/>
        <path data-name="Path 46846" d="M40.246 38.5a3.748 3.748 0 1 0-3.746 3.746 3.748 3.748 0 0 0 3.746-3.746zM36.5 40.954a2.456 2.456 0 1 1 2.454-2.454 2.456 2.456 0 0 1-2.454 2.454z" transform="translate(-21.727 -22.543)" style="fill:#fff;stroke:#fff;stroke-width:.5px"/>
        <path data-name="Path 46847" d="M56.5 34.75a3.748 3.748 0 1 0 3.746 3.75 3.748 3.748 0 0 0-3.746-3.75zm0 6.2a2.456 2.456 0 1 1 2.454-2.45 2.456 2.456 0 0 1-2.454 2.454z" transform="translate(-31.387 -22.543)" style="fill:#fff;stroke:#fff;stroke-width:.5px"/>
        <path data-name="Path 46848" d="M50.051 54.938a.646.646 0 0 0-.915 0l-2.641 2.642-2.647-2.647a.647.647 0 0 0-.915.915l2.647 2.647-2.647 2.647a.647.647 0 0 0 .915.915l2.647-2.647 2.647 2.647a.647.647 0 0 0 .915-.915l-2.647-2.647 2.647-2.647a.646.646 0 0 0-.006-.91z" transform="translate(-26.554 -32.2)" style="fill:#fff;stroke:#fff;stroke-width:.5px"/>
    </g>
</svg>
