<svg data-name="Iconly/Bold/Video" xmlns="http://www.w3.org/2000/svg" width="18" height="13" viewBox="0 0 18 13">
    <path data-name="Video" d="M3.7 13A3.457 3.457 0 0 1 0 9.481V3.519A3.457 3.457 0 0 1 3.7 0h5.215a3.457 3.457 0 0 1 3.7 3.519v5.962A3.457 3.457 0 0 1 8.915 13zm12.459-2.062-1.332-.647a1.4 1.4 0 0 1-.8-1.263V3.972a1.4 1.4 0 0 1 .8-1.261l1.333-.649a1.287 1.287 0 0 1 1.236.055A1.231 1.231 0 0 1 18 3.174v6.652a1.229 1.229 0 0 1-.6 1.057 1.286 1.286 0 0 1-1.237.055z" style="fill:#fff"/>
</svg>
