<svg data-name="Iconly/Bold/Video" xmlns="http://www.w3.org/2000/svg" width="20" height="15" viewBox="0 0 20 15">
    <path data-name="Video" d="M4.113 15A3.91 3.91 0 0 1 0 10.939V4.061A3.91 3.91 0 0 1 4.113 0h5.792a3.91 3.91 0 0 1 4.113 4.061v6.879A3.91 3.91 0 0 1 9.905 15zm13.844-2.38-1.48-.747a1.624 1.624 0 0 1-.888-1.457V4.583a1.618 1.618 0 0 1 .888-1.455l1.481-.749a1.384 1.384 0 0 1 1.373.064A1.432 1.432 0 0 1 20 3.662v7.676a1.43 1.43 0 0 1-.669 1.219 1.4 1.4 0 0 1-.743.216 1.384 1.384 0 0 1-.631-.152z" style="fill:#fff"/>
</svg>
