<svg xmlns="http://www.w3.org/2000/svg" width="40" height="40" viewBox="0 0 40 40">
    <path data-name="Rectangle 28" style="fill:none" d="M0 0h40v40H0z"/>
    <g data-name="noun-blood-2532125">
        <path data-name="Rectangle 28" style="fill:none" d="M0 0h40v40H0z"/>
        <g data-name="Group 36796">
            <path data-name="Path 46781" d="M29.184 27.449h-3.216a.977.977 0 1 1 0-1.954h2.239v-2.239a.977.977 0 1 1 1.954 0v3.216a.977.977 0 0 1-.977.977zm-23.832 0H2.136a.977.977 0 0 1-.977-.977v-3.216a.977.977 0 1 1 1.954 0v2.239h2.239a.977.977 0 1 1 0 1.954zM15.66 24a17.136 17.136 0 0 1-14.339-7.721.977.977 0 0 1 0-1.075A17.139 17.139 0 0 1 30 15.2a.977.977 0 0 1 0 1.075A17.136 17.136 0 0 1 15.66 24zm0-14.595a6.328 6.328 0 0 0-6.32 6.32c.318 8.373 12.324 8.371 12.64 0a6.328 6.328 0 0 0-6.32-6.32zm6.795 1.6a8.34 8.34 0 0 1-.008 9.446A15.2 15.2 0 0 0 28 15.74a15.23 15.23 0 0 0-5.543-4.731zM3.323 15.74a15.2 15.2 0 0 0 5.551 4.715 8.34 8.34 0 0 1-.008-9.446 15.23 15.23 0 0 0-5.543 4.731zm12.337 4.124a4.139 4.139 0 1 1 4.14-4.139 4.139 4.139 0 0 1-4.139 4.139zm0-6.324a2.185 2.185 0 1 0 2.185 2.185 2.185 2.185 0 0 0-2.185-2.185zm13.524-4.368a.977.977 0 0 1-.977-.977V5.956h-2.239a.977.977 0 1 1 0-1.954h3.216a.977.977 0 0 1 .977.977v3.216a.977.977 0 0 1-.977.977zm-27.048 0a.977.977 0 0 1-.977-.977V4.979A.977.977 0 0 1 2.136 4h3.216a.977.977 0 1 1 0 1.954H3.113v2.241a.977.977 0 0 1-.977.977z" transform="translate(4.38 4.276)" style="fill:#fff"/>
        </g>
    </g>
</svg>
