<svg xmlns="http://www.w3.org/2000/svg" width="40" height="40" viewBox="0 0 40 40">
    <path data-name="Rectangle 28" style="fill:none" d="M0 0h40v40H0z"/>
    <path data-name="Path 46826" d="m57.154 28.542 4.689 3.246a.36.36 0 0 0 .411-.591l-4.2-2.911 4.887-2.608a.36.36 0 1 0-.339-.635l-5.41 2.885a.362.362 0 0 0-.036.617z" transform="translate(-34.345 -14.297)" style="fill:#fff"/>
    <path data-name="Path 46827" d="M63.411 16.247a.361.361 0 1 0 0-.721 5.476 5.476 0 0 1-4.761-2.38.361.361 0 0 0-.577.433 6.137 6.137 0 0 0 5.338 2.668z" transform="translate(-34.986 -6.625)" style="fill:#fff"/>
    <path data-name="Path 46828" d="M26.044 25.186a.358.358 0 0 0 .148.487l4.887 2.608-4.2 2.911a.36.36 0 0 0 .411.591l4.689-3.246a.358.358 0 0 0 .155-.317.365.365 0 0 0-.191-.3l-5.41-2.885a.358.358 0 0 0-.487.148z" transform="translate(-14.527 -14.291)" style="fill:#fff"/>
    <path data-name="Path 46829" d="M26.361 16.247a6.137 6.137 0 0 0 5.339-2.669.361.361 0 0 0-.577-.433 5.476 5.476 0 0 1-4.761 2.38.361.361 0 1 0 0 .721z" transform="translate(-14.527 -6.625)" style="fill:#fff"/>
    <path data-name="Path 46830" d="M35.886 32.41a1.654 1.654 0 0 0-1.8-1.443 2.163 2.163 0 0 1-1.212-.206 14.067 14.067 0 1 0-16.41-.577 1.81 1.81 0 0 0-.393.884 1.62 1.62 0 0 0-2.049 2.164 1.609 1.609 0 0 0-.494 1.161 1.625 1.625 0 0 0 1.623 1.623 1.651 1.651 0 0 0 .628-.126 2.16 2.16 0 0 0 3.621.91 2.315 2.315 0 0 0 .642.1 1.917 1.917 0 0 0 .692-.13 2.252 2.252 0 0 0 3.221.029 2.536 2.536 0 0 0 1.829.664 2.338 2.338 0 0 0 1.991-.869 1.912 1.912 0 0 1 1.107.328 2.419 2.419 0 0 0 1.591.541 1.712 1.712 0 0 0 1.731-1.327 2.727 2.727 0 0 0 1.154.245c1.212 0 2.164-.714 2.164-1.623a1.412 1.412 0 0 0-.537-1.078 1.244 1.244 0 0 0 .9-1.266zM33 26.64a3.248 3.248 0 0 1-.858 2.1 14.829 14.829 0 0 1 .018-4.54 4.179 4.179 0 0 1 .84 2.44zm-21.279-7.574a13.345 13.345 0 1 1 20.735 11.1 4.038 4.038 0 0 0-.184-.31v-.022a12.024 12.024 0 0 0-.022-.188 4.16 4.16 0 0 0 1.468-3.015c0-3.066-3.7-6.492-8.656-6.492s-8.656 3.426-8.656 6.492a3.866 3.866 0 0 0 1.345 2.893 1.825 1.825 0 0 0-.714.191 13.409 13.409 0 0 1-5.32-10.661zm6.269 9.684a3.036 3.036 0 0 1-.858-2.11 4.179 4.179 0 0 1 .84-2.438 14.785 14.785 0 0 1 .018 4.548zm1.847 7.412a2.149 2.149 0 0 0 .18-.866c0-.325.09-.393.119-.418.072-.054.249-.123.689-.061a1.446 1.446 0 0 0-.447 1.021 1.2 1.2 0 0 0 .032.281 1.278 1.278 0 0 1-.573.04zm13.705-3.03a1 1 0 0 1-.18 0 .361.361 0 0 0 0 .721c.783 0 1.443.411 1.443.9s-.66.9-1.443.9-1.443-.411-1.443-.9a.361.361 0 0 0-.721 0 1.349 1.349 0 0 0 .357.9 1.039 1.039 0 0 1-1.078 1.082 1.715 1.715 0 0 1-1.165-.4 2.314 2.314 0 0 0-1.352-.444c.036-.876.252-1.915-1.288-2.719-.743-.371-.714-.848-.6-1.724a6.327 6.327 0 0 0 .076-.84 5.54 5.54 0 0 0-.379-1.738 4.942 4.942 0 0 1-.343-1.508.361.361 0 0 0-.721 0 5.54 5.54 0 0 0 .379 1.738 4.942 4.942 0 0 1 .343 1.508 5.927 5.927 0 0 1-.069.743c-.112.822-.249 1.847.988 2.467 1.179.6.9 1.342.884 2.2 0 .339-.617.721-1.443.721-.934-.036-1.526-.375-1.443-.9a.361.361 0 1 0-.721 0c0 .49-.577.9-1.262.9s-1.262-.411-1.262-.9c0-.39.368-.729.866-.851a1.135 1.135 0 0 0 .97-.563 1.4 1.4 0 0 0-.137-1.547.388.388 0 0 1 .018-.339.818.818 0 0 1 .808-.487.8.8 0 0 0 .646-.252c.285-.332.213-.822.065-1.8a27.916 27.916 0 0 1-.353-4.436.361.361 0 0 0-.721 0 28.6 28.6 0 0 0 .361 4.544 5.048 5.048 0 0 1 .115 1.215.3.3 0 0 1-.115.014 1.543 1.543 0 0 0-1.475.931 1.026 1.026 0 0 0 .137 1.125.723.723 0 0 1 .018.682c-.115.2-.368.252-.757.159-.916-.231-1.486-.2-1.857.087a1.163 1.163 0 0 0-.4.985 1.442 1.442 0 0 1-1.443 1.443 1.415 1.415 0 0 1-1.428-1.349 1.612 1.612 0 0 0 .317-.667c.069-.433.029-.656.512-.656.314-.036.963-.112.963-.934s1.184-1.443 2.165-1.443c1.248 0 1.479-.382 1.5-1.183a2.57 2.57 0 0 1 .26-1.183.36.36 0 0 0-.646-.321 3.237 3.237 0 0 0-.335 1.482c-.014.465-.014.483-.783.483-1.2 0-2.885.822-2.885 2.164q0 .18-.325.22a1.089 1.089 0 0 0-1.114 1.038.9.9 0 1 1-1.374-.765.362.362 0 0 0 .162-.234.358.358 0 0 0-.061-.281.887.887 0 0 1-.17-.523.9.9 0 0 1 .9-.9.89.89 0 0 1 .707.353.358.358 0 0 0 .458.094.366.366 0 0 0 .166-.44 1.065 1.065 0 0 1-.069-.368 1.085 1.085 0 0 1 1.082-1.082c.714 0 2.885 0 2.885-1.8a1.337 1.337 0 0 1 .317-1.039 1.549 1.549 0 0 0 .4-1.125v-2.168a.361.361 0 0 0-.721 0v2.164a.843.843 0 0 1-.242.671 2.007 2.007 0 0 0-.48 1.493c0 .613-.429.938-1.389 1.042a17 17 0 0 0-.036-6.012 9.35 9.35 0 0 1 12.948 0 16.267 16.267 0 0 0-.09 5.551c-.2-.144-.541-.364-.775-.519-.884-.588-.92-1.439-.92-3.307a.361.361 0 0 0-.721 0c-.022 2.016.054 3.278 1.547 4.108a2.811 2.811 0 0 1 1.374 1.464c.462.92 1.385.92 2.124.92.588 0 1.082.332 1.082.721 0 .613-.559.721-1.623.721z" transform="translate(-4.936 -1.51)" style="stroke:#fff;stroke-width:.25px;fill:#fff"/>
    <path data-name="Path 46831" d="M59.583 69.616c-.188-.094-.256-.281-.371-.635a2.583 2.583 0 0 0-1.032-1.508 5.494 5.494 0 0 0-.833-.454c-.469-.216-.61-.281-.822-1.136a2.453 2.453 0 0 1-.011-1.306 5.4 5.4 0 0 0 .014-2.272.358.358 0 0 0-.415-.3.362.362 0 0 0-.3.415 4.78 4.78 0 0 1-.011 2.012 3.145 3.145 0 0 0 .018 1.623c.285 1.136.613 1.334 1.219 1.616a5.448 5.448 0 0 1 .736.4 1.848 1.848 0 0 1 .747 1.132 1.581 1.581 0 0 0 .736 1.057.361.361 0 0 0 .321-.646z" transform="translate(-33.52 -37.954)" style="fill:#fff"/>
    <path data-name="Path 46832" d="M83.443 73c-.808 0-1.443.476-1.443 1.082s.635 1.082 1.443 1.082 1.443-.476 1.443-1.082S84.251 73 83.443 73zm0 1.443c-.44 0-.721-.213-.721-.361s.281-.361.721-.361.721.213.721.361-.281.361-.721.361z" transform="translate(-50.329 -44.985)" style="fill:#fff"/>
    <path data-name="Path 46833" d="M11.262 80a1.095 1.095 0 1 0 0 2.164 1.095 1.095 0 1 0 0-2.164zm0 1.443c-.289 0-.541-.17-.541-.361s.252-.361.541-.361.541.17.541.361-.252.361-.541.361z" transform="translate(-4.297 -49.46)" style="fill:#fff"/>
</svg>
